<?xml version="1.0" encoding="utf-8"?>
<!-- Generator: Adobe Illustrator 17.0.0, SVG Export Plug-In . SVG Version: 6.00 Build 0)  -->
<!DOCTYPE svg PUBLIC "-//W3C//DTD SVG 1.1//EN" "http://www.w3.org/Graphics/SVG/1.1/DTD/svg11.dtd">
<svg version="1.1" id="图层_1" xmlns="http://www.w3.org/2000/svg" xmlns:xlink="http://www.w3.org/1999/xlink" x="0px" y="0px"
	 width="35.3px" height="32.7px" viewBox="0 0 35.3 32.7" enable-background="new 0 0 35.3 32.7" xml:space="preserve">
<g>
	<polygon fill="#F5F5F5" points="24.7,32.7 35.3,18.4 28.3,2.1 10.6,0 0,14.2 7,30.6 	"/>
	<g>
		<polygon opacity="0.1" fill="#3C96E6" enable-background="new    " points="30,18.1 12.5,4.5 28.3,2.1 		"/>
		<polygon opacity="0.15" fill="#3C96E6" enable-background="new    " points="30,18.1 28.3,2.1 35.3,18.4 		"/>
		<polygon opacity="0.18" fill="#3C96E6" enable-background="new    " points="12.5,4.5 10.6,0 28.3,2.1 		"/>
		<polygon opacity="0.25" fill="#3C96E6" enable-background="new    " points="10.6,0 12.5,4.5 0,14.2 		"/>
		<polygon opacity="0.25" fill="#3C96E6" enable-background="new    " points="10.1,26.5 0,14.2 7,30.6 		"/>
		<polygon opacity="0.15" fill="#3C96E6" enable-background="new    " points="12.5,4.5 10.1,26.5 0,14.2 		"/>
		<polyline opacity="0.2" fill="#3C96E6" enable-background="new    " points="30,18.1 35.3,18.4 24.7,32.7 30,18.1 		"/>
		<polygon opacity="0.15" fill="#3C96E6" enable-background="new    " points="30,18.1 24.7,32.7 10.1,26.5 		"/>
		<polygon opacity="0.05" fill="#3C96E6" enable-background="new    " points="30,18.1 12.5,4.5 10.1,26.5 		"/>
		<polygon opacity="0.2" fill="#3C96E6" enable-background="new    " points="24.7,32.7 7,30.6 10.1,26.5 		"/>
	</g>
</g>
</svg>
