<?xml version="1.0" encoding="utf-8"?>
<!-- Generator: Adobe Illustrator 17.0.0, SVG Export Plug-In . SVG Version: 6.00 Build 0)  -->
<!DOCTYPE svg PUBLIC "-//W3C//DTD SVG 1.1//EN" "http://www.w3.org/Graphics/SVG/1.1/DTD/svg11.dtd">
<svg version="1.1" id="图层_1" xmlns="http://www.w3.org/2000/svg" xmlns:xlink="http://www.w3.org/1999/xlink" x="0px" y="0px"
	 width="51px" height="54.725px" viewBox="0 0 51 54.725" enable-background="new 0 0 51 54.725" xml:space="preserve">
<g>
	<line fill="none" stroke="#3C96E6" stroke-width="0.7" stroke-miterlimit="10" x1="25.5" y1="48.532" x2="25.5" y2="54.225"/>
	<g>
		<line fill="none" stroke="#3C96E6" stroke-width="0.7" stroke-miterlimit="10" x1="6.194" y1="29.225" x2="0.5" y2="29.225"/>
		<line fill="none" stroke="#3C96E6" stroke-width="0.7" stroke-miterlimit="10" x1="50.5" y1="29.225" x2="44.806" y2="29.225"/>
		<line fill="none" stroke="#3C96E6" stroke-width="0.7" stroke-miterlimit="10" x1="25.5" y1="4.226" x2="25.5" y2="9.919"/>
		<g>
			
				<polygon fill="none" stroke="#3C96E6" stroke-width="0.7002" stroke-linecap="round" stroke-linejoin="round" stroke-miterlimit="10" points="
				11.702,43.023 20.855,24.58 39.298,15.428 30.145,33.87 			"/>
			
				<line fill="none" stroke="#3C96E6" stroke-width="0.7002" stroke-linecap="round" stroke-linejoin="round" stroke-miterlimit="10" x1="20.855" y1="24.58" x2="30.145" y2="33.87"/>
		</g>
		<circle fill="none" stroke="#818181" stroke-miterlimit="10" cx="25.5" cy="29.225" r="25"/>
		<g>
			<path fill="none" stroke="#818181" stroke-miterlimit="10" d="M29.492,4.409c0.005-0.08,0.024-0.156,0.024-0.238
				c0-2.02-1.652-3.672-3.672-3.672h-0.688c-2.02,0-3.672,1.652-3.672,3.672c0,0.081,0.019,0.158,0.024,0.238
				c1.3-0.209,2.633-0.321,3.992-0.321S28.191,4.201,29.492,4.409z"/>
		</g>
	</g>
</g>
</svg>
