<?xml version="1.0" encoding="utf-8"?>
<!-- Generator: Adobe Illustrator 17.0.0, SVG Export Plug-In . SVG Version: 6.00 Build 0)  -->
<!DOCTYPE svg PUBLIC "-//W3C//DTD SVG 1.1//EN" "http://www.w3.org/Graphics/SVG/1.1/DTD/svg11.dtd">
<svg version="1.1" id="图层_1" xmlns="http://www.w3.org/2000/svg" xmlns:xlink="http://www.w3.org/1999/xlink" x="0px" y="0px"
	 width="51px" height="51px" viewBox="0 0 51 51" enable-background="new 0 0 51 51" xml:space="preserve">
<g>
	<path fill="none" stroke="#818181" stroke-miterlimit="10" d="M43.186,7.822C38.462,3.1,32.181,0.5,25.5,0.5
		S12.538,3.1,7.814,7.822c-9.752,9.748-9.752,25.608,0,35.355C12.538,47.9,18.819,50.5,25.5,50.5s12.962-2.6,17.686-7.322
		C52.938,33.43,52.938,17.571,43.186,7.822z"/>
	<path fill="none" stroke="#E6501E" stroke-width="0.7" stroke-linecap="round" stroke-linejoin="round" stroke-miterlimit="10" d="
		M10.223,22.509c0.136,0.149,0.27,0.292,0.397,0.4c1.18,1.001,2.224,1.632,3.779,1.687c0.239,0.007,0.544-0.018,0.865-0.048
		c0.47-0.044,1.056-0.097,1.325,0.009c0.223,0.088,0.369,0.299,0.588,0.635c0.118,0.181,0.239,0.364,0.38,0.528
		c0.599,0.699,1.406,1.264,2.186,1.81c1.393,0.978,2.71,1.9,2.77,3.459c0.043,1.101-0.32,1.97-1.177,2.819
		c-0.725,0.719-1.183,1.532-1.626,2.318c-0.239,0.423-0.486,0.862-0.773,1.283c-0.182,0.268-0.366,0.503-0.541,0.726
		c-0.591,0.758-1.151,1.474-1.159,2.782c-0.001,0.114-0.011,0.25-0.023,0.394c-0.032,0.427-0.069,0.911,0.065,1.291
		c0.13,0.369,0.393,0.619,0.605,0.821c0.035,0.033,0.067,0.063,0.096,0.092c-1.055-0.052-1.717-0.438-2.015-1.172
		c-0.09-0.221-0.083-0.7-0.077-1.122c0.012-0.888,0.028-2.076-0.832-2.486c-0.243-0.869-0.229-1.877-0.216-2.939
		c0.013-1,0.026-2.035-0.191-2.981c-0.195-0.849-0.612-1.545-1.014-2.217c-0.621-1.038-1.111-1.857-0.698-2.985
		c0.749-2.047,0.245-2.377-1.461-3.114l-0.138-0.06c-1.012-0.438-1.853-0.901-2.532-1.61l0.723-0.738
		c0.066-0.067,0.104-0.08,0.111-0.08C9.767,22.011,10.075,22.347,10.223,22.509z M21.08,14.273c-0.158,0.148-0.929,0.228-1.343,0.27
		c-0.405,0.042-0.787,0.081-1.061,0.169c-0.55,0.175-1.08,0.304-1.58,0.426c-1.955,0.476-3.802,0.925-4.508,3.79
		c-0.095,0.385-0.169,0.637-0.225,0.801c-0.295-0.315-0.772-0.788-1.533-0.889c-0.538-0.079-1.016,0.065-1.379,0.396
		c-0.759,0.694-0.785,2.001-0.762,2.531l0.044,0.981c-0.163-0.179-0.318-0.372-0.461-0.585c-0.225-0.331-0.464-0.589-0.676-0.817
		c-0.474-0.51-0.735-0.792-0.611-1.519c0.079-0.461,0.379-1.014,0.669-1.548c0.173-0.32,0.342-0.633,0.47-0.928
		c1.025-2.372,1.911-4.422,4.399-5.669c0.103-0.052,0.22-0.117,0.345-0.188c0.318-0.178,0.837-0.47,1.055-0.47
		c0.013,0,0.025,0.001,0.036,0.003c0.026,0.025,0.081,0.117,0.118,0.178c0.131,0.217,0.328,0.547,0.723,0.65
		c0.913,0.233,1.243-0.438,1.441-0.839l0.061-0.123c0.18-0.354,0.26-0.751,0.33-1.1c0.045-0.222,0.083-0.396,0.125-0.532
		c1.331-0.111,4.133,0.893,4.415,1.772C21.434,11.847,21.422,13.953,21.08,14.273z M26.035,7.212
		c-2.425,0.117-2.794,1.619-2.899,3.255c-0.049-0.051-0.099-0.119-0.151-0.209c-0.704-1.209-0.412-4.001,0.032-4.444
		c0.17-0.17,0.498-0.227,0.88-0.227c0.432,0,0.933,0.073,1.352,0.133c0.435,0.062,0.846,0.119,1.183,0.123
		c0.729,0.008,1.458,0.005,2.186,0.003h0.233C28.629,6.975,27.858,7.122,26.035,7.212z"/>
	<path fill="none" stroke="#E6501E" stroke-width="0.7" stroke-linecap="round" stroke-linejoin="round" stroke-miterlimit="10" d="
		M43.62,25.96c-0.163,0.191-0.365,0.277-0.661,0.271l-0.394-0.008l-0.093,0.382c-0.193,0.795-0.222,1.612-0.25,2.402
		c-0.038,1.089-0.074,2.117-0.515,3.035c-0.193,0.401-0.465,0.648-0.78,0.934c-0.285,0.259-0.609,0.552-0.893,0.987
		c-0.085,0.13-0.167,0.269-0.251,0.41c-0.25,0.422-0.509,0.858-0.877,1.079c-0.456,0.275-0.873,0.355-1.239,0.236
		c-0.463-0.15-0.887-0.63-1.193-1.35c-0.887-2.088-0.625-2.784-0.391-3.014l0.313-0.304l-0.267-0.346
		c-0.37-0.48-0.594-1.023-0.831-1.598c-0.224-0.543-0.455-1.104-0.822-1.634c-0.947-1.367-2.289-1.831-3.587-2.278
		c-0.21-0.073-0.422-0.146-0.636-0.224c-0.657-0.239-1.177-0.797-1.465-1.567c-0.384-1.027-0.301-2.287,0.211-3.21
		c0.179-0.321,0.452-0.583,0.74-0.861c0.441-0.424,0.941-0.904,1.107-1.653c0.094-0.428,0.111-0.793,0.125-1.115
		c0.023-0.533,0.04-0.919,0.392-1.42c0.353-0.503,0.785-0.78,1.285-1.102c0.36-0.232,0.731-0.47,1.098-0.811
		c1.306-1.211,0.596-2.08,0.025-2.777l-0.037-0.047c0.011-0.024,0.021-0.048,0.032-0.072c0.072-0.162,0.146-0.326,0.226-0.483
		c1.303,0.195,2.011,0.797,3.163,1.99c0.734,0.758,1.415,1.63,2.075,2.471c0.405,0.517,0.81,1.035,1.231,1.534l0.361,0.426
		c1.505,1.773,2.592,3.054,2.995,5.322C44.208,23.756,44.136,25.357,43.62,25.96z"/>
</g>
</svg>
