<?xml version="1.0" encoding="utf-8"?>
<!-- Generator: Adobe Illustrator 17.0.0, SVG Export Plug-In . SVG Version: 6.00 Build 0)  -->
<!DOCTYPE svg PUBLIC "-//W3C//DTD SVG 1.1//EN" "http://www.w3.org/Graphics/SVG/1.1/DTD/svg11.dtd">
<svg version="1.1" id="图层_1" xmlns="http://www.w3.org/2000/svg" xmlns:xlink="http://www.w3.org/1999/xlink" x="0px" y="0px"
	 width="46px" height="46px" viewBox="0 0 46 46" enable-background="new 0 0 46 46" xml:space="preserve">
<g>
	<g>
		<g>
			<path fill="#818181" d="M39.429,1C42.501,1,45,3.499,45,6.571v32.857C45,42.501,42.501,45,39.429,45H6.571
				C3.499,45,1,42.501,1,39.429V6.571C1,3.499,3.499,1,6.571,1H39.429 M39.429,0H6.571C2.942,0,0,2.942,0,6.571v32.857
				C0,43.058,2.942,46,6.571,46h32.857C43.058,46,46,43.058,46,39.429V6.571C46,2.942,43.058,0,39.429,0L39.429,0z"/>
		</g>
	</g>
	<polyline fill="none" stroke="#818181" stroke-linecap="round" stroke-linejoin="round" stroke-miterlimit="10" points="0.5,7.883 
		31.094,7.883 45.5,7.883 	"/>
	<g>
		<g>
			<polyline fill="none" stroke="#E69628" stroke-linecap="round" stroke-linejoin="round" stroke-miterlimit="10" points="
				31.193,19.425 40.333,25.814 31.193,32.203 			"/>
			<polyline fill="none" stroke="#E69628" stroke-linecap="round" stroke-linejoin="round" stroke-miterlimit="10" points="
				14.807,32.203 5.667,25.814 14.807,19.425 			"/>
		</g>
		
			<line fill="none" stroke="#E69628" stroke-linecap="round" stroke-linejoin="round" stroke-miterlimit="10" x1="18.959" y1="32.813" x2="27.041" y2="18.815"/>
	</g>
</g>
</svg>
