<?xml version="1.0" encoding="utf-8"?>
<!-- Generator: Adobe Illustrator 17.0.0, SVG Export Plug-In . SVG Version: 6.00 Build 0)  -->
<!DOCTYPE svg PUBLIC "-//W3C//DTD SVG 1.1//EN" "http://www.w3.org/Graphics/SVG/1.1/DTD/svg11.dtd">
<svg version="1.1" id="图层_1" xmlns="http://www.w3.org/2000/svg" xmlns:xlink="http://www.w3.org/1999/xlink" x="0px" y="0px"
	 width="46px" height="46px" viewBox="0 0 46 46" enable-background="new 0 0 46 46" xml:space="preserve">
<g>
	<g>
		<g>
			<path fill="#818181" d="M39.429,1C42.501,1,45,3.499,45,6.571v32.857C45,42.501,42.501,45,39.429,45H6.571
				C3.499,45,1,42.501,1,39.429V6.571C1,3.499,3.499,1,6.571,1H39.429 M39.429,0H6.571C2.942,0,0,2.942,0,6.571v32.857
				C0,43.058,2.942,46,6.571,46h32.857C43.058,46,46,43.058,46,39.429V6.571C46,2.942,43.058,0,39.429,0L39.429,0z"/>
		</g>
	</g>
	
		<polygon fill="none" stroke="#E69628" stroke-width="0.7" stroke-linecap="round" stroke-linejoin="round" stroke-miterlimit="10" points="
		17.57,8.78 32.453,19.182 17.57,29.585 	"/>
	
		<line fill="none" stroke="#818181" stroke-linecap="round" stroke-linejoin="round" stroke-miterlimit="10" x1="35.164" y1="38.508" x2="40.5" y2="38.508"/>
	
		<line fill="none" stroke="#818181" stroke-linecap="round" stroke-linejoin="round" stroke-miterlimit="10" x1="5.5" y1="38.508" x2="27.024" y2="38.508"/>
	<path fill="none" stroke="#E69628" stroke-width="0.7" stroke-linecap="round" stroke-linejoin="round" stroke-miterlimit="10" d="
		M35,38.333c0,1.105-0.895,2-2,2h-3.5c-1.105,0-2-0.895-2-2l0,0c0-1.105,0.895-2,2-2H33C34.105,36.333,35,37.229,35,38.333
		L35,38.333z"/>
</g>
</svg>
