<?xml version="1.0" encoding="utf-8"?>
<!-- Generator: Adobe Illustrator 17.0.0, SVG Export Plug-In . SVG Version: 6.00 Build 0)  -->
<!DOCTYPE svg PUBLIC "-//W3C//DTD SVG 1.1//EN" "http://www.w3.org/Graphics/SVG/1.1/DTD/svg11.dtd">
<svg version="1.1" id="图层_1" xmlns="http://www.w3.org/2000/svg" xmlns:xlink="http://www.w3.org/1999/xlink" x="0px" y="0px"
	 width="37.142px" height="37px" viewBox="0 0 37.142 37" enable-background="new 0 0 37.142 37" xml:space="preserve">
<g>
	<g>
		
			<path fill-rule="evenodd" clip-rule="evenodd" fill="none" stroke="#3C96E6" stroke-linecap="round" stroke-linejoin="round" stroke-miterlimit="10" stroke-dasharray="1,3" d="
			M36.642,18.882V0.5h0 M34.642,0.5H18.571"/>
	</g>
	
		<path fill-rule="evenodd" clip-rule="evenodd" fill="none" stroke="#3C96E6" stroke-linecap="round" stroke-linejoin="round" stroke-miterlimit="10" d="
		M18.571,0.5H0.5v28.405h2.581h2.582v2.582V36.5l14.913-7.46l0.577-0.135l0,0h15.489V18.882"/>
	<g>
		
			<path fill-rule="evenodd" clip-rule="evenodd" fill="none" stroke="#3C96E6" stroke-linecap="round" stroke-linejoin="round" stroke-miterlimit="10" d="
			M14.083,12.672c0.061-1.744,0.529-3.039,1.402-3.88c0.872-0.841,1.931-1.262,3.179-1.262c1.37,0,2.445,0.374,3.226,1.122
			c0.779,0.748,1.169,1.715,1.169,2.898l0,0c0,0.811-0.187,1.559-0.561,2.244c-0.374,0.687-0.874,1.278-1.496,1.776
			c-0.624,0.5-1.061,0.998-1.309,1.496c-0.25,0.5-0.374,0.841-0.374,1.028v0.654"/>
		
			<line fill="none" stroke="#3C96E6" stroke-linecap="round" stroke-linejoin="round" stroke-miterlimit="10" x1="19.395" y1="21.029" x2="19.395" y2="22.735"/>
	</g>
</g>
</svg>
