<?xml version="1.0" encoding="utf-8"?>
<!-- Generator: Adobe Illustrator 17.0.0, SVG Export Plug-In . SVG Version: 6.00 Build 0)  -->
<!DOCTYPE svg PUBLIC "-//W3C//DTD SVG 1.1//EN" "http://www.w3.org/Graphics/SVG/1.1/DTD/svg11.dtd">
<svg version="1.1" id="图层_1" xmlns="http://www.w3.org/2000/svg" xmlns:xlink="http://www.w3.org/1999/xlink" x="0px" y="0px"
	 width="43.389px" height="40.716px" viewBox="0 0 43.389 40.716" enable-background="new 0 0 43.389 40.716" xml:space="preserve">
<g>
	<polygon fill="#F5F5F5" points="13.567,40.716 35.261,37.576 43.389,17.218 29.823,0 8.128,3.14 0,23.498 	"/>
	<g>
		<polygon opacity="0.1" fill="#32AF5A" points="30.947,32.66 27.543,5.584 43.389,17.218 		"/>
		<polygon opacity="0.15" fill="#32AF5A" points="30.947,32.66 43.389,17.218 35.261,37.576 		"/>
		<polygon opacity="0.18" fill="#32AF5A" points="27.543,5.584 29.823,0 43.389,17.218 		"/>
		<polygon opacity="0.25" fill="#32AF5A" points="29.823,0 27.543,5.584 8.128,3.14 		"/>
		<polygon opacity="0.25" fill="#32AF5A" points="6.309,22.63 8.128,3.14 0,23.498 		"/>
		<polygon opacity="0.15" fill="#32AF5A" points="27.543,5.584 6.309,22.63 8.128,3.14 		"/>
		<polyline opacity="0.2" fill="#32AF5A" points="30.947,32.66 35.261,37.576 13.567,40.716 30.947,32.66 		"/>
		<path fill="#32AF5A" stroke="#000000" stroke-linecap="round" stroke-linejoin="round" stroke-miterlimit="10" d="M27.543,5.584"
			/>
		<path fill="#32AF5A" stroke="#000000" stroke-linecap="round" stroke-linejoin="round" stroke-miterlimit="10" d="M13.567,40.716"
			/>
		<polygon opacity="0.15" fill="#32AF5A" points="30.947,32.66 13.567,40.716 6.309,22.63 		"/>
		<polygon opacity="0.05" fill="#32AF5A" points="30.947,32.66 27.543,5.584 6.309,22.63 		"/>
		<polygon opacity="0.2" fill="#32AF5A" points="13.567,40.716 0,23.498 6.309,22.63 		"/>
	</g>
</g>
</svg>
