<?xml version="1.0" encoding="utf-8"?>
<!-- Generator: Adobe Illustrator 17.0.0, SVG Export Plug-In . SVG Version: 6.00 Build 0)  -->
<!DOCTYPE svg PUBLIC "-//W3C//DTD SVG 1.1//EN" "http://www.w3.org/Graphics/SVG/1.1/DTD/svg11.dtd">
<svg version="1.1" id="图层_1" xmlns="http://www.w3.org/2000/svg" xmlns:xlink="http://www.w3.org/1999/xlink" x="0px" y="0px"
	 width="39.52px" height="37px" viewBox="0 0 39.52 37" enable-background="new 0 0 39.52 37" xml:space="preserve">
<g>
	<path fill="none" stroke="#E6501E" stroke-linecap="round" stroke-linejoin="round" stroke-miterlimit="10" d="M9.18,33.932
		c0,0.983-0.797,1.781-1.781,1.781H2.281c-0.983,0-1.781-0.797-1.781-1.781V16.719c0-0.983,0.797-1.781,1.781-1.781H7.4
		c0.634,0,1.19,0.331,1.506,0.83"/>
	<path fill="none" stroke="#E6501E" stroke-linecap="round" stroke-linejoin="round" stroke-miterlimit="10" d="M9.18,15.861
		c5.017,0.163,7.777-4.288,8.184-5.35c0.616-1.609,0.357-8.212,0.297-9.588c-0.028-0.648,5.384-0.933,6.432,2.081
		c1.122,3.227,0.528,10.35,0.528,10.35h9.947c2.458,0,4.451,1.993,4.451,4.451l-2.208,14.245c-0.357,2.597-2.258,4.451-4.716,4.451
		H13.632c-1.599,0-3.001-0.843-3.786-2.109"/>
	
		<line fill="none" stroke="#E6501E" stroke-linecap="round" stroke-linejoin="round" stroke-miterlimit="10" stroke-dasharray="1,3" x1="9.18" y1="16.647" x2="9.18" y2="33.522"/>
</g>
</svg>
