<svg xmlns="http://www.w3.org/2000/svg" width="40.7" height="40.7" viewBox="0 0 40.7 40.7"><g stroke="#333" stroke-width=".7" stroke-linejoin="round" stroke-miterlimit="10"><circle fill="#FFF" cx="20.35" cy="20.35" r="20"/><g fill="none"><path d="M30.656 9.999H24.1a3.75 3.75 0 0 0-3.751 3.751 3.75 3.75 0 0 0-3.751-3.751h-6.556c-.905 0-1.638.734-1.638 1.638v15.94c0 .905.734 1.638 1.638 1.638h6.97c.744.898 1.96 1.486 3.337 1.486 1.377 0 2.593-.587 3.337-1.486h6.97c.905 0 1.638-.734 1.638-1.638v-15.94a1.638 1.638 0 0 0-1.638-1.638zM20.35 13.75v13.799"/></g><path fill="none" d="M23.651 14.699h5.8M11.618 14.699h5.8M11.618 19.182h5.8M23.651 19.182h5.8M11.618 23.666h5.8"/></g></svg>