<?xml version="1.0" encoding="utf-8"?>
<!-- Generator: Adobe Illustrator 17.0.0, SVG Export Plug-In . SVG Version: 6.00 Build 0)  -->
<!DOCTYPE svg PUBLIC "-//W3C//DTD SVG 1.1//EN" "http://www.w3.org/Graphics/SVG/1.1/DTD/svg11.dtd">
<svg version="1.1" id="图层_1" xmlns="http://www.w3.org/2000/svg" xmlns:xlink="http://www.w3.org/1999/xlink" x="0px" y="0px"
	 width="132.5px" height="151.9px" viewBox="0 0 132.5 151.9" enable-background="new 0 0 132.5 151.9" xml:space="preserve">
<g>
	<polygon fill="#F5F5F5" points="132.5,38.8 67.2,0 0.9,37.2 0,113.2 65.3,151.9 131.6,114.8 	"/>
	<g opacity="0.8">
		<polygon opacity="0.1" fill="#E6501E" enable-background="new    " points="68.1,22.6 18.3,103.1 0.9,37.2 		"/>
		<polygon opacity="0.15" fill="#E6501E" enable-background="new    " points="68.1,22.6 0.9,37.2 67.2,0 		"/>
		<polygon opacity="0.18" fill="#E6501E" enable-background="new    " points="18.3,103.1 0,113.2 0.9,37.2 		"/>
		<polygon opacity="0.25" fill="#E6501E" enable-background="new    " points="0,113.2 18.3,103.1 65.3,151.9 		"/>
		<polygon opacity="0.25" fill="#E6501E" enable-background="new    " points="112.7,103.4 65.3,151.9 131.6,114.8 		"/>
		<polygon opacity="0.15" fill="#E6501E" enable-background="new    " points="18.3,103.1 112.7,103.4 65.3,151.9 		"/>
		<polyline opacity="0.2" fill="#E6501E" enable-background="new    " points="68.1,22.6 67.2,0 132.5,38.8 68.1,22.6 		"/>
		<polygon opacity="0.15" fill="#E6501E" enable-background="new    " points="68.1,22.6 132.5,38.8 112.7,103.4 		"/>
		<polygon opacity="0.05" fill="#E6501E" enable-background="new    " points="68.1,22.6 18.3,103.1 112.7,103.4 		"/>
		<polygon opacity="0.2" fill="#E6501E" enable-background="new    " points="132.5,38.8 131.6,114.8 112.7,103.4 		"/>
	</g>
</g>
</svg>
