<?xml version="1.0" encoding="utf-8"?>
<!-- Generator: Adobe Illustrator 17.0.0, SVG Export Plug-In . SVG Version: 6.00 Build 0)  -->
<!DOCTYPE svg PUBLIC "-//W3C//DTD SVG 1.1//EN" "http://www.w3.org/Graphics/SVG/1.1/DTD/svg11.dtd">
<svg version="1.1" id="图层_1" xmlns="http://www.w3.org/2000/svg" xmlns:xlink="http://www.w3.org/1999/xlink" x="0px" y="0px"
	 width="57.1px" height="52.8px" viewBox="0 0 57.1 52.8" enable-background="new 0 0 57.1 52.8" xml:space="preserve">
<g>
	<polygon fill="#F5F5F5" points="39.9,52.8 57.1,29.8 45.7,3.4 17.2,0 0,23 11.3,49.4 	"/>
	<g>
		<polygon opacity="0.1" fill="#E69628" enable-background="new    " points="48.5,29.2 20.3,7.3 45.7,3.4 		"/>
		<polygon opacity="0.15" fill="#E69628" enable-background="new    " points="48.5,29.2 45.7,3.4 57.1,29.8 		"/>
		<polygon opacity="0.18" fill="#E69628" enable-background="new    " points="20.3,7.3 17.2,0 45.7,3.4 		"/>
		<polygon opacity="0.25" fill="#E69628" enable-background="new    " points="17.2,0 20.3,7.3 0,23 		"/>
		<polygon opacity="0.25" fill="#E69628" enable-background="new    " points="16.4,42.8 0,23 11.3,49.4 		"/>
		<polygon opacity="0.15" fill="#E69628" enable-background="new    " points="20.3,7.3 16.4,42.8 0,23 		"/>
		<polyline opacity="0.2" fill="#E69628" enable-background="new    " points="48.5,29.2 57.1,29.8 39.9,52.8 48.5,29.2 		"/>
		<polygon opacity="0.15" fill="#E69628" enable-background="new    " points="48.5,29.2 39.9,52.8 16.4,42.8 		"/>
		<polygon opacity="0.05" fill="#E69628" enable-background="new    " points="48.5,29.2 20.3,7.3 16.4,42.8 		"/>
		<polygon opacity="0.2" fill="#E69628" enable-background="new    " points="39.9,52.8 11.3,49.4 16.4,42.8 		"/>
	</g>
</g>
</svg>
