<svg xmlns="http://www.w3.org/2000/svg" width="40.7" height="40.7" viewBox="0 0 40.7 40.7"><g fill="#FFF" stroke="#333" stroke-width=".7" stroke-miterlimit="10"><circle cx="20.35" cy="20.35" r="20"/><path d="M7.848 36.04V17.522a3.113 3.113 0 0 1 3.104-3.104h3.473M26.276 14.418h3.473a3.113 3.113 0 0 1 3.104 3.104V36.04M12.05 18.091h16.6M16.626 18.091V14.26a3.842 3.842 0 0 1 3.831-3.831h.213a3.842 3.842 0 0 1 3.831 3.831v3.831h-7.875z"/><circle cx="20.563" cy="14.26" r="1.357"/><path d="M24.756 24.614L20.35 29.02l-4.406-4.406M14.526 29.02h11.648M20.35 29.02v8.397M14.526 33.317h11.648"/></g></svg>