<svg xmlns="http://www.w3.org/2000/svg" width="40.7" height="40.7" viewBox="0 0 40.7 40.7"><g stroke="#333" stroke-width=".7" stroke-miterlimit="10"><circle fill="#FFF" cx="20.35" cy="20.35" r="20"/><g fill="#FFF"><path d="M10.884 28.085c-.771 0-2.373-.183-2.373-2.152 0-.571.018-1.123.147-2.189.093-.773.148-1.233.148-1.637 0-.717-.055-1.49-1.657-1.6v-.313c1.601-.11 1.657-.901 1.657-1.582 0-.423-.037-.865-.129-1.637-.129-1.086-.166-1.656-.166-2.208 0-1.968 1.619-2.152 2.373-2.152m-2.648 7.763M29.816 12.615c.773 0 2.373.184 2.373 2.152 0 .571-.036 1.122-.147 2.189-.073.773-.147 1.233-.147 1.637 0 .717.054 1.49 1.655 1.6v.313c-1.601.11-1.655.901-1.655 1.582 0 .423.036.864.129 1.637.129 1.085.165 1.656.165 2.208 0 1.968-1.619 2.152-2.373 2.152"/></g><g fill="#333"><circle cx="24.893" cy="20.35" r=".757"/><circle cx="20.35" cy="20.35" r=".757"/><circle cx="15.807" cy="20.35" r=".757"/></g></g></svg>