<svg id="图层_1" xmlns="http://www.w3.org/2000/svg" width="21.5" height="8" viewBox="0 0 21.5 8"><style>.st0{fill:#418dcc}</style><path class="st0" d="M0 0h3.4c.7 0 1.2.2 1.6.5.4.3.6.8.6 1.4.1.6-.1 1.1-.6 1.5-.1.1-.3.2-.4.2.3.1.5.2.7.4.5.4.8.9.8 1.6 0 .7-.3 1.3-.8 1.7-.5.4-1.2.6-2.1.6H0V0zm1.1 3.4H3c.6 0 1-.1 1.3-.3.3-.2.4-.5.4-1 0-.4-.1-.7-.4-.9C4 1 3.6.9 3.1.9h-2v2.5zm0 3.6h2.2c.6 0 1.1-.1 1.3-.4.3-.2.4-.6.4-1.1 0-.4-.1-.8-.4-1-.3-.2-.8-.3-1.4-.3H1.1V7zm8.5 1c-.9 0-1.5-.2-2-.7-.4-.6-.7-1.3-.7-2.2 0-1 .2-1.7.7-2.3.6-.5 1.2-.8 2.1-.8.8 0 1.4.3 1.8.8s.7 1.3.7 2.2v.3H8c0 .6.2 1 .4 1.3.2.4.7.6 1.2.6.4 0 .7-.1 1-.3.3-.2.4-.5.5-.8h1c-.1.6-.4 1.1-.9 1.4-.4.4-1 .5-1.6.5zm1.6-3.4c0-.5-.2-.9-.4-1.2-.3-.4-.7-.6-1.2-.6s-.9.2-1.2.6c-.2.3-.4.7-.4 1.2h3.2zm4.2 3.3c-.3.1-.6.1-.7.1-.4 0-.7-.1-.9-.3-.2-.2-.3-.5-.3-1V2.9h-.8v-.8h.8V.5h1v1.6h.9v.8h-.9v3.8c0 .1.1.2.2.3.1.1.2.1.4.1h.3v.8zm2.5.1c-.6 0-1-.2-1.3-.5-.3-.3-.5-.7-.5-1.2s.2-.9.5-1.2c.3-.3.8-.5 1.4-.6l1.3-.2c.1 0 .2 0 .3-.1.1 0 .2-.1.3-.2.1-.1.1-.2.1-.4 0-.3-.1-.5-.3-.7-.2-.2-.6-.3-1-.3s-.7.1-.9.3c-.2.2-.4.5-.4.8h-.9c0-.6.3-1.1.7-1.4.2-.2.8-.3 1.5-.3s1.2.2 1.6.5c.4.3.5.7.5 1.3v3.1c0 .1 0 .2.1.2.1.1.1.1.2.1h.3v.7c-.1 0-.2.1-.3.1h-.3c-.4 0-.6-.1-.8-.3-.1-.1-.2-.3-.2-.6-.1.1-.2.2-.2.3-.4.4-1 .6-1.7.6zm2-2.4V5c-.2.1-.4.1-.6.2l-.9.1c-.5.1-.8.2-1 .3s-.3.4-.3.6c0 .3.1.6.3.7.2.2.4.3.7.3.5 0 .9-.1 1.3-.4.2-.2.4-.4.5-.7v-.5z"/></svg>