<svg xmlns="http://www.w3.org/2000/svg" width="20.4" height="20.494" viewBox="0 0 20.4 20.494"><path fill="none" stroke="#333" stroke-width=".4" stroke-linejoin="round" stroke-miterlimit="10" d="M3.942 9.853h12.516M3.942 13.235h12.516M3.942 16.618h12.516"/><path fill="#333" d="M10.2.4a2.54 2.54 0 0 1 2.326 1.525.4.4 0 0 0 .366.24h1.025v3.023H6.482V2.165h1.025a.398.398 0 0 0 .366-.24A2.543 2.543 0 0 1 10.2.4m0-.4a2.94 2.94 0 0 0-2.693 1.765H6.082v3.824h8.235V1.765h-1.425A2.937 2.937 0 0 0 10.2 0z"/><path fill="none" stroke="#333" stroke-width=".4" stroke-linejoin="round" stroke-miterlimit="10" d="M5.017 3.235h-1.96A2.857 2.857 0 0 0 .2 6.092v11.345a2.857 2.857 0 0 0 2.857 2.857h14.286a2.857 2.857 0 0 0 2.857-2.857V6.092a2.857 2.857 0 0 0-2.857-2.857h-1.96"/></svg>