<svg xmlns="http://www.w3.org/2000/svg" xmlns:xlink="http://www.w3.org/1999/xlink" width="1868.74" height="63.527" viewBox="0 0 1868.74 63.527"><defs><path id="a" d="M0 0h1868.74v63.527H0z"/></defs><clipPath id="b"><use xlink:href="#a" overflow="visible"/></clipPath><g clip-path="url(#b)"><defs><path id="c" d="M177.411 15.896L172.42 1.549l15.594 5.614-10.603 8.733zm-2.481-11.81l3.207 9.22 6.815-5.612-10.022-3.608z"/></defs><clipPath id="e"><use xlink:href="#c" overflow="visible"/></clipPath><defs><filter id="d" filterUnits="userSpaceOnUse" x="172.42" y="1.549" width="15.594" height="14.347"><feColorMatrix values="1 0 0 0 0 0 1 0 0 0 0 0 1 0 0 0 0 0 1 0"/></filter></defs><mask maskUnits="userSpaceOnUse" x="172.42" y="1.549" width="15.594" height="14.347" id="g"><g filter="url(#d)"><linearGradient id="f" gradientUnits="userSpaceOnUse" y1="63.527" x2="1" y2="63.527" gradientTransform="matrix(560.7681 0 0 -560.7681 5.957 35632.64)"><stop offset="0"/><stop offset="1" stop-color="#262626"/></linearGradient><path clip-path="url(#e)" fill="url(#f)" d="M172.42 1.549h15.594v14.347H172.42z"/></g></mask><g clip-path="url(#e)" mask="url(#g)"><defs><path id="h" d="M172.42 1.549h15.594v14.347H172.42z"/></defs><clipPath id="i"><use xlink:href="#h" overflow="visible"/></clipPath><path clip-path="url(#i)" fill="#E6501E" d="M172.42 1.549h15.594v14.347H172.42z"/></g></g><g clip-path="url(#b)"><defs><path id="j" transform="rotate(-152.928 45.725 3.715)" d="M39.251 2.946h12.946v1.537H39.251z"/></defs><clipPath id="l"><use xlink:href="#j" overflow="visible"/></clipPath><defs><filter id="k" filterUnits="userSpaceOnUse" x="39.611" y=".084" width="12.226" height="7.261"><feColorMatrix values="1 0 0 0 0 0 1 0 0 0 0 0 1 0 0 0 0 0 1 0"/></filter></defs><mask maskUnits="userSpaceOnUse" x="39.611" y=".084" width="12.226" height="7.261" id="n"><g filter="url(#k)"><linearGradient id="m" gradientUnits="userSpaceOnUse" y1="63.527" x2="1" y2="63.527" gradientTransform="matrix(560.7681 0 0 -560.7681 5.957 35627.633)"><stop offset="0"/><stop offset="1" stop-color="#262626"/></linearGradient><path clip-path="url(#l)" fill="url(#m)" d="M39.611.084h12.226v7.261H39.611z"/></g></mask><g clip-path="url(#l)" mask="url(#n)"><defs><path id="o" d="M39.611.084h12.226v7.261H39.611z"/></defs><clipPath id="p"><use xlink:href="#o" overflow="visible"/></clipPath><path clip-path="url(#p)" fill="#E6501E" d="M39.611.084h12.226v7.261H39.611z"/></g></g><g clip-path="url(#b)"><defs><path id="q" d="M105.763 42.653h-8.137l-4.068-7.047 4.068-7.047h8.137l4.069 7.047-4.069 7.047zm-7.25-1.537h6.363l3.182-5.51-3.182-5.51h-6.363l-3.181 5.51 3.181 5.51z"/></defs><clipPath id="s"><use xlink:href="#q" overflow="visible"/></clipPath><defs><filter id="r" filterUnits="userSpaceOnUse" x="93.558" y="28.559" width="16.274" height="14.094"><feColorMatrix values="1 0 0 0 0 0 1 0 0 0 0 0 1 0 0 0 0 0 1 0"/></filter></defs><mask maskUnits="userSpaceOnUse" x="93.558" y="28.559" width="16.274" height="14.094" id="u"><g filter="url(#r)"><linearGradient id="t" gradientUnits="userSpaceOnUse" y1="63.527" x2="1" y2="63.527" gradientTransform="matrix(560.7681 0 0 -560.7681 5.957 35659.523)"><stop offset="0"/><stop offset="1" stop-color="#262626"/></linearGradient><path clip-path="url(#s)" fill="url(#t)" d="M93.558 28.559h16.274v14.094H93.558z"/></g></mask><g clip-path="url(#s)" mask="url(#u)"><defs><path id="v" d="M93.558 28.559h16.274v14.094H93.558z"/></defs><clipPath id="w"><use xlink:href="#v" overflow="visible"/></clipPath><path clip-path="url(#w)" fill="#E6501E" d="M93.558 28.559h16.274v14.094H93.558z"/></g></g><g clip-path="url(#b)"><defs><path id="x" d="M1.537 29.907c0-.813.661-1.474 1.473-1.474s1.473.661 1.473 1.474c0 .811-.661 1.472-1.473 1.472s-1.473-.661-1.473-1.472m-1.537 0c0 1.659 1.35 3.009 3.01 3.009s3.01-1.35 3.01-3.009c0-1.66-1.35-3.01-3.01-3.01S0 28.247 0 29.907"/></defs><clipPath id="z"><use xlink:href="#x" overflow="visible"/></clipPath><defs><filter id="y" filterUnits="userSpaceOnUse" x="0" y="26.897" width="6.02" height="6.019"><feColorMatrix values="1 0 0 0 0 0 1 0 0 0 0 0 1 0 0 0 0 0 1 0"/></filter></defs><mask maskUnits="userSpaceOnUse" x="0" y="26.897" width="6.02" height="6.019" id="B"><g filter="url(#y)"><linearGradient id="A" gradientUnits="userSpaceOnUse" y1="63.527" x2="1" y2="63.527" gradientTransform="matrix(560.7681 0 0 -560.7681 5.957 35653.824)"><stop offset="0"/><stop offset="1" stop-color="#262626"/></linearGradient><path clip-path="url(#z)" fill="url(#A)" d="M0 26.897h6.02v6.019H0z"/></g></mask><g clip-path="url(#z)" mask="url(#B)"><defs><path id="C" d="M0 26.897h6.02v6.019H0z"/></defs><clipPath id="D"><use xlink:href="#C" overflow="visible"/></clipPath><path clip-path="url(#D)" fill="#E6501E" d="M0 26.897h5.957v6.019H0zm5.957 0h.063v6.019h-.063z"/></g></g><g clip-path="url(#b)"><defs><path id="E" d="M160.611 60.837a1.153 1.153 0 1 1 2.306.002 1.153 1.153 0 0 1-2.306-.002m-1.537 0a2.693 2.693 0 0 0 2.689 2.69 2.693 2.693 0 0 0 2.69-2.69 2.693 2.693 0 0 0-2.69-2.689 2.693 2.693 0 0 0-2.689 2.689"/></defs><clipPath id="G"><use xlink:href="#E" overflow="visible"/></clipPath><defs><filter id="F" filterUnits="userSpaceOnUse" x="159.074" y="58.148" width="5.379" height="5.379"><feColorMatrix values="1 0 0 0 0 0 1 0 0 0 0 0 1 0 0 0 0 0 1 0"/></filter></defs><mask maskUnits="userSpaceOnUse" x="159.074" y="58.148" width="5.379" height="5.379" id="I"><g filter="url(#F)"><linearGradient id="H" gradientUnits="userSpaceOnUse" y1="63.527" x2="1" y2="63.527" gradientTransform="matrix(560.7681 0 0 -560.7681 5.957 35684.754)"><stop offset="0"/><stop offset="1" stop-color="#262626"/></linearGradient><path clip-path="url(#G)" fill="url(#H)" d="M159.074 58.148h5.379v5.379h-5.379z"/></g></mask><g clip-path="url(#G)" mask="url(#I)"><defs><path id="J" d="M159.074 58.148h5.379v5.379h-5.379z"/></defs><clipPath id="K"><use xlink:href="#J" overflow="visible"/></clipPath><path clip-path="url(#K)" fill="#E6501E" d="M159.074 58.148h5.379v5.379h-5.379z"/></g></g><g clip-path="url(#b)"><defs><path id="L" d="M240.478 9.478c0-4.379 3.562-7.941 7.942-7.941 4.377 0 7.941 3.562 7.941 7.941 0 4.378-3.564 7.94-7.941 7.94-4.38 0-7.942-3.562-7.942-7.94M248.42 0c-5.227 0-9.479 4.252-9.479 9.478s4.252 9.477 9.479 9.477c5.226 0 9.477-4.251 9.477-9.477S253.646 0 248.42 0z"/></defs><clipPath id="N"><use xlink:href="#L" overflow="visible"/></clipPath><defs><filter id="M" filterUnits="userSpaceOnUse" x="238.941" y="0" width="18.956" height="18.955"><feColorMatrix values="1 0 0 0 0 0 1 0 0 0 0 0 1 0 0 0 0 0 1 0"/></filter></defs><mask maskUnits="userSpaceOnUse" x="238.941" y="0" width="18.956" height="18.955" id="P"><g filter="url(#M)"><linearGradient id="O" gradientUnits="userSpaceOnUse" y1="63.527" x2="1" y2="63.527" gradientTransform="matrix(560.7681 0 0 -560.7681 5.957 35633.395)"><stop offset="0"/><stop offset="1" stop-color="#262626"/></linearGradient><path clip-path="url(#N)" fill="url(#O)" d="M238.941 0h18.956v18.955h-18.956z"/></g></mask><g clip-path="url(#N)" mask="url(#P)"><defs><path id="Q" d="M238.941 0h18.956v18.955h-18.956z"/></defs><clipPath id="R"><use xlink:href="#Q" overflow="visible"/></clipPath><path clip-path="url(#R)" fill="#E6501E" d="M238.941 0h18.956v18.955h-18.956z"/></g></g><g clip-path="url(#b)"><defs><path id="S" d="M473.662 4.086l10.021 3.608-6.814 5.612-3.207-9.22zm2.48 11.81l10.603-8.733-15.593-5.614 4.99 14.347z"/></defs><clipPath id="U"><use xlink:href="#S" overflow="visible"/></clipPath><defs><filter id="T" filterUnits="userSpaceOnUse" x="471.152" y="1.549" width="15.593" height="14.347"><feColorMatrix values="1 0 0 0 0 0 1 0 0 0 0 0 1 0 0 0 0 0 1 0"/></filter></defs><mask maskUnits="userSpaceOnUse" x="471.152" y="1.549" width="15.593" height="14.347" id="W"><g filter="url(#T)"><linearGradient id="V" gradientUnits="userSpaceOnUse" y1="63.527" x2="1" y2="63.527" gradientTransform="matrix(560.7681 0 0 -560.7681 5.957 35632.64)"><stop offset="0"/><stop offset="1" stop-color="#262626"/></linearGradient><path clip-path="url(#U)" fill="url(#V)" d="M471.152 1.549h15.593v14.347h-15.593z"/></g></mask><g clip-path="url(#U)" mask="url(#W)"><defs><path id="X" d="M471.152 1.549h15.593v14.347h-15.593z"/></defs><clipPath id="Y"><use xlink:href="#X" overflow="visible"/></clipPath><path clip-path="url(#Y)" fill="#E6501E" d="M471.152 1.549h15.593v14.347h-15.593z"/></g></g><g clip-path="url(#b)"><defs><path id="Z" transform="rotate(-152.928 344.463 3.713)" d="M337.983 2.946h12.946v1.538h-12.946z"/></defs><clipPath id="ab"><use xlink:href="#Z" overflow="visible"/></clipPath><defs><filter id="aa" filterUnits="userSpaceOnUse" x="338.342" y=".084" width="12.228" height="7.261"><feColorMatrix values="1 0 0 0 0 0 1 0 0 0 0 0 1 0 0 0 0 0 1 0"/></filter></defs><mask maskUnits="userSpaceOnUse" x="338.342" y=".084" width="12.228" height="7.261" id="ad"><g filter="url(#aa)"><linearGradient id="ac" gradientUnits="userSpaceOnUse" y1="63.527" x2="1" y2="63.527" gradientTransform="matrix(560.7681 0 0 -560.7681 5.957 35627.633)"><stop offset="0"/><stop offset="1" stop-color="#262626"/></linearGradient><path clip-path="url(#ab)" fill="url(#ac)" d="M338.342.084h12.228v7.261h-12.228z"/></g></mask><g clip-path="url(#ab)" mask="url(#ad)"><defs><path id="ae" d="M338.342.084h12.228v7.261h-12.228z"/></defs><clipPath id="af"><use xlink:href="#ae" overflow="visible"/></clipPath><path clip-path="url(#af)" fill="#E6501E" d="M338.342.084h12.228v7.261h-12.228z"/></g></g><g clip-path="url(#b)"><defs><path id="ag" d="M394.064 35.605l3.181-5.509h6.363l3.18 5.509-3.18 5.511h-6.363l-3.181-5.511zm2.294-7.047l-4.068 7.047 4.068 7.048h8.136l4.069-7.048-4.069-7.047h-8.136z"/></defs><clipPath id="ai"><use xlink:href="#ag" overflow="visible"/></clipPath><defs><filter id="ah" filterUnits="userSpaceOnUse" x="392.29" y="28.558" width="16.273" height="14.095"><feColorMatrix values="1 0 0 0 0 0 1 0 0 0 0 0 1 0 0 0 0 0 1 0"/></filter></defs><mask maskUnits="userSpaceOnUse" x="392.29" y="28.558" width="16.273" height="14.095" id="ak"><g filter="url(#ah)"><linearGradient id="aj" gradientUnits="userSpaceOnUse" y1="63.527" x2="1" y2="63.527" gradientTransform="matrix(560.7681 0 0 -560.7681 5.957 35659.523)"><stop offset="0"/><stop offset="1" stop-color="#262626"/></linearGradient><path clip-path="url(#ai)" fill="url(#aj)" d="M392.29 28.558h16.273v14.095H392.29z"/></g></mask><g clip-path="url(#ai)" mask="url(#ak)"><defs><path id="al" d="M392.29 28.558h16.273v14.095H392.29z"/></defs><clipPath id="am"><use xlink:href="#al" overflow="visible"/></clipPath><path clip-path="url(#am)" fill="#E6501E" d="M392.29 28.558h16.273v14.095H392.29z"/></g></g><g clip-path="url(#b)"><defs><path id="an" d="M300.269 29.907c0-.813.66-1.474 1.472-1.474s1.473.661 1.473 1.474c0 .811-.661 1.472-1.473 1.472s-1.472-.661-1.472-1.472m-1.537 0a3.013 3.013 0 0 0 3.009 3.009 3.013 3.013 0 0 0 3.011-3.009c0-1.66-1.35-3.01-3.011-3.01a3.013 3.013 0 0 0-3.009 3.01"/></defs><clipPath id="ap"><use xlink:href="#an" overflow="visible"/></clipPath><defs><filter id="ao" filterUnits="userSpaceOnUse" x="298.732" y="26.897" width="6.02" height="6.019"><feColorMatrix values="1 0 0 0 0 0 1 0 0 0 0 0 1 0 0 0 0 0 1 0"/></filter></defs><mask maskUnits="userSpaceOnUse" x="298.732" y="26.897" width="6.02" height="6.019" id="ar"><g filter="url(#ao)"><linearGradient id="aq" gradientUnits="userSpaceOnUse" y1="63.527" x2="1" y2="63.527" gradientTransform="matrix(560.7681 0 0 -560.7681 5.957 35653.824)"><stop offset="0"/><stop offset="1" stop-color="#262626"/></linearGradient><path clip-path="url(#ap)" fill="url(#aq)" d="M298.732 26.897h6.02v6.019h-6.02z"/></g></mask><g clip-path="url(#ap)" mask="url(#ar)"><defs><path id="as" d="M298.732 26.897h6.02v6.019h-6.02z"/></defs><clipPath id="at"><use xlink:href="#as" overflow="visible"/></clipPath><path clip-path="url(#at)" fill="#E6501E" d="M298.732 26.897h6.02v6.019h-6.02z"/></g></g><g clip-path="url(#b)"><defs><path id="au" d="M459.343 60.837a1.153 1.153 0 1 1 2.305.001 1.153 1.153 0 0 1-2.305-.001m-1.537 0a2.693 2.693 0 0 0 2.69 2.69 2.693 2.693 0 0 0 2.689-2.69 2.693 2.693 0 0 0-2.689-2.689 2.693 2.693 0 0 0-2.69 2.689"/></defs><clipPath id="aw"><use xlink:href="#au" overflow="visible"/></clipPath><defs><filter id="av" filterUnits="userSpaceOnUse" x="457.806" y="58.148" width="5.379" height="5.379"><feColorMatrix values="1 0 0 0 0 0 1 0 0 0 0 0 1 0 0 0 0 0 1 0"/></filter></defs><mask maskUnits="userSpaceOnUse" x="457.806" y="58.148" width="5.379" height="5.379" id="ay"><g filter="url(#av)"><linearGradient id="ax" gradientUnits="userSpaceOnUse" y1="63.527" x2="1" y2="63.527" gradientTransform="matrix(560.7681 0 0 -560.7681 5.957 35684.754)"><stop offset="0"/><stop offset="1" stop-color="#262626"/></linearGradient><path clip-path="url(#aw)" fill="url(#ax)" d="M457.806 58.148h5.379v5.379h-5.379z"/></g></mask><g clip-path="url(#aw)" mask="url(#ay)"><defs><path id="az" d="M457.806 58.148h5.379v5.379h-5.379z"/></defs><clipPath id="aA"><use xlink:href="#az" overflow="visible"/></clipPath><path clip-path="url(#aA)" fill="#E6501E" d="M457.806 58.148h5.379v5.379h-5.379z"/></g></g><g clip-path="url(#b)"><defs><path id="aB" d="M539.21 9.478c0-4.379 3.562-7.941 7.941-7.941 4.378 0 7.94 3.562 7.94 7.941 0 4.378-3.562 7.94-7.94 7.94-4.379 0-7.941-3.562-7.941-7.94M547.151 0c-5.227 0-9.478 4.252-9.478 9.478s4.251 9.477 9.478 9.477c5.226 0 9.477-4.251 9.477-9.477S552.377 0 547.151 0z"/></defs><clipPath id="aD"><use xlink:href="#aB" overflow="visible"/></clipPath><defs><filter id="aC" filterUnits="userSpaceOnUse" x="537.673" y="0" width="18.955" height="18.955"><feColorMatrix values="1 0 0 0 0 0 1 0 0 0 0 0 1 0 0 0 0 0 1 0"/></filter></defs><mask maskUnits="userSpaceOnUse" x="537.673" y="0" width="18.955" height="18.955" id="aF"><g filter="url(#aC)"><linearGradient id="aE" gradientUnits="userSpaceOnUse" y1="63.527" x2="1" y2="63.527" gradientTransform="matrix(560.7681 0 0 -560.7681 5.957 35633.395)"><stop offset="0"/><stop offset="1" stop-color="#262626"/></linearGradient><path clip-path="url(#aD)" fill="url(#aE)" d="M537.673 0h18.955v18.955h-18.955z"/></g></mask><g clip-path="url(#aD)" mask="url(#aF)"><defs><path id="aG" d="M537.673 0h18.955v18.955h-18.955z"/></defs><clipPath id="aH"><use xlink:href="#aG" overflow="visible"/></clipPath><path clip-path="url(#aH)" fill="#E6501E" d="M537.673 0h18.955v18.955h-18.955z"/></g></g><g clip-path="url(#b)"><defs><path id="aI" d="M1683.792 7.694l10.022-3.608-3.207 9.22-6.815-5.612zm-3.062-.531l10.604 8.732 4.99-14.346-15.594 5.614z"/></defs><clipPath id="aK"><use xlink:href="#aI" overflow="visible"/></clipPath><defs><filter id="aJ" filterUnits="userSpaceOnUse" x="1680.73" y="1.549" width="15.594" height="14.346"><feColorMatrix values="1 0 0 0 0 0 1 0 0 0 0 0 1 0 0 0 0 0 1 0"/></filter></defs><mask maskUnits="userSpaceOnUse" x="1680.73" y="1.549" width="15.594" height="14.346" id="aM"><g filter="url(#aJ)"><linearGradient id="aL" gradientUnits="userSpaceOnUse" y1="63.527" x2="1" y2="63.527" gradientTransform="rotate(180 931.394 17816.32) scale(560.7681)"><stop offset="0"/><stop offset="1" stop-color="#262626"/></linearGradient><path clip-path="url(#aK)" fill="url(#aL)" d="M1680.73 1.549h15.594v14.346h-15.594z"/></g></mask><g clip-path="url(#aK)" mask="url(#aM)"><defs><path id="aN" d="M1680.73 1.549h15.594v14.346h-15.594z"/></defs><clipPath id="aO"><use xlink:href="#aN" overflow="visible"/></clipPath><path clip-path="url(#aO)" fill="#E6501E" d="M1680.73 1.549h15.594v14.346h-15.594z"/></g></g><g clip-path="url(#b)"><defs><path id="aP" transform="rotate(-117.116 1823.01 3.697)" d="M1822.25-2.758h1.538v12.945h-1.538z"/></defs><clipPath id="aR"><use xlink:href="#aP" overflow="visible"/></clipPath><defs><filter id="aQ" filterUnits="userSpaceOnUse" x="1816.906" y=".084" width="12.227" height="7.261"><feColorMatrix values="1 0 0 0 0 0 1 0 0 0 0 0 1 0 0 0 0 0 1 0"/></filter></defs><mask maskUnits="userSpaceOnUse" x="1816.906" y=".084" width="12.227" height="7.261" id="aT"><g filter="url(#aQ)"><linearGradient id="aS" gradientUnits="userSpaceOnUse" y1="63.527" x2="1" y2="63.527" gradientTransform="rotate(180 931.394 17813.816) scale(560.7681)"><stop offset="0"/><stop offset="1" stop-color="#262626"/></linearGradient><path clip-path="url(#aR)" fill="url(#aS)" d="M1816.906.084h12.227v7.261h-12.227z"/></g></mask><g clip-path="url(#aR)" mask="url(#aT)"><defs><path id="aU" d="M1816.906.084h12.227v7.261h-12.227z"/></defs><clipPath id="aV"><use xlink:href="#aU" overflow="visible"/></clipPath><path clip-path="url(#aV)" fill="#E6501E" d="M1816.906.084h12.227v7.261h-12.227z"/></g></g><g clip-path="url(#b)"><defs><path id="aW" d="M1760.687 35.605l3.181-5.509h6.364l3.18 5.509-3.18 5.511h-6.364l-3.181-5.511zm2.294-7.047l-4.069 7.047 4.069 7.048h8.137l4.068-7.048-4.068-7.047h-8.137z"/></defs><clipPath id="aY"><use xlink:href="#aW" overflow="visible"/></clipPath><defs><filter id="aX" filterUnits="userSpaceOnUse" x="1758.912" y="28.558" width="16.274" height="14.095"><feColorMatrix values="1 0 0 0 0 0 1 0 0 0 0 0 1 0 0 0 0 0 1 0"/></filter></defs><mask maskUnits="userSpaceOnUse" x="1758.912" y="28.558" width="16.274" height="14.095" id="ba"><g filter="url(#aX)"><linearGradient id="aZ" gradientUnits="userSpaceOnUse" y1="63.527" x2="1" y2="63.527" gradientTransform="rotate(180 931.394 17829.762) scale(560.7681)"><stop offset="0"/><stop offset="1" stop-color="#262626"/></linearGradient><path clip-path="url(#aY)" fill="url(#aZ)" d="M1758.912 28.558h16.274v14.095h-16.274z"/></g></mask><g clip-path="url(#aY)" mask="url(#ba)"><defs><path id="bb" d="M1758.912 28.558h16.274v14.095h-16.274z"/></defs><clipPath id="bc"><use xlink:href="#bb" overflow="visible"/></clipPath><path clip-path="url(#bc)" fill="#E6501E" d="M1758.912 28.558h16.274v14.095h-16.274z"/></g></g><g clip-path="url(#b)"><defs><path id="bd" d="M1864.261 29.907c0-.813.661-1.474 1.473-1.474s1.474.661 1.474 1.474a1.475 1.475 0 0 1-2.947 0m-1.537 0a3.013 3.013 0 0 0 3.01 3.009c1.66 0 3.01-1.35 3.01-3.009 0-1.66-1.35-3.01-3.01-3.01a3.014 3.014 0 0 0-3.01 3.01"/></defs><clipPath id="bf"><use xlink:href="#bd" overflow="visible"/></clipPath><defs><filter id="be" filterUnits="userSpaceOnUse" x="1862.724" y="26.897" width="6.02" height="6.019"><feColorMatrix values="1 0 0 0 0 0 1 0 0 0 0 0 1 0 0 0 0 0 1 0"/></filter></defs><mask maskUnits="userSpaceOnUse" x="1862.724" y="26.897" width="6.02" height="6.019" id="bh"><g filter="url(#be)"><linearGradient id="bg" gradientUnits="userSpaceOnUse" y1="63.527" x2="1" y2="63.527" gradientTransform="rotate(180 931.394 17826.912) scale(560.7681)"><stop offset="0"/><stop offset="1" stop-color="#262626"/></linearGradient><path clip-path="url(#bf)" fill="url(#bg)" d="M1862.724 26.897h6.02v6.019h-6.02z"/></g></mask><g clip-path="url(#bf)" mask="url(#bh)"><defs><path id="bi" d="M1862.724 26.897h6.02v6.019h-6.02z"/></defs><clipPath id="bj"><use xlink:href="#bi" overflow="visible"/></clipPath><path clip-path="url(#bj)" fill="#E6501E" d="M1862.788 26.897h5.956v6.019h-5.956zm-.064 0h.064v6.019h-.064z"/></g></g><g clip-path="url(#b)"><defs><path id="bk" d="M1705.828 60.837a1.153 1.153 0 1 1 2.306.002 1.153 1.153 0 0 1-2.306-.002m-1.537 0a2.693 2.693 0 0 0 2.689 2.69 2.694 2.694 0 0 0 2.691-2.69 2.693 2.693 0 0 0-2.691-2.689 2.693 2.693 0 0 0-2.689 2.689"/></defs><clipPath id="bm"><use xlink:href="#bk" overflow="visible"/></clipPath><defs><filter id="bl" filterUnits="userSpaceOnUse" x="1704.291" y="58.148" width="5.38" height="5.379"><feColorMatrix values="1 0 0 0 0 0 1 0 0 0 0 0 1 0 0 0 0 0 1 0"/></filter></defs><mask maskUnits="userSpaceOnUse" x="1704.291" y="58.148" width="5.38" height="5.379" id="bo"><g filter="url(#bl)"><linearGradient id="bn" gradientUnits="userSpaceOnUse" y1="63.527" x2="1" y2="63.527" gradientTransform="rotate(180 931.394 17842.377) scale(560.7681)"><stop offset="0"/><stop offset="1" stop-color="#262626"/></linearGradient><path clip-path="url(#bm)" fill="url(#bn)" d="M1704.291 58.148h5.38v5.379h-5.38z"/></g></mask><g clip-path="url(#bm)" mask="url(#bo)"><defs><path id="bp" d="M1704.291 58.148h5.38v5.379h-5.38z"/></defs><clipPath id="bq"><use xlink:href="#bp" overflow="visible"/></clipPath><path clip-path="url(#bq)" fill="#E6501E" d="M1704.291 58.148h5.38v5.379h-5.38z"/></g></g><g clip-path="url(#b)"><defs><path id="br" d="M1612.384 9.478c0-4.379 3.562-7.941 7.941-7.941 4.378 0 7.941 3.562 7.941 7.941 0 4.378-3.563 7.94-7.941 7.94-4.379 0-7.941-3.562-7.941-7.94M1620.325 0c-5.226 0-9.478 4.252-9.478 9.478s4.252 9.477 9.478 9.477 9.478-4.251 9.478-9.477S1625.551 0 1620.325 0z"/></defs><clipPath id="bt"><use xlink:href="#br" overflow="visible"/></clipPath><defs><filter id="bs" filterUnits="userSpaceOnUse" x="1610.847" y="0" width="18.956" height="18.955"><feColorMatrix values="1 0 0 0 0 0 1 0 0 0 0 0 1 0 0 0 0 0 1 0"/></filter></defs><mask maskUnits="userSpaceOnUse" x="1610.847" y="0" width="18.956" height="18.955" id="bv"><g filter="url(#bs)"><linearGradient id="bu" gradientUnits="userSpaceOnUse" y1="63.527" x2="1" y2="63.527" gradientTransform="rotate(180 931.394 17816.697) scale(560.7681)"><stop offset="0"/><stop offset="1" stop-color="#262626"/></linearGradient><path clip-path="url(#bt)" fill="url(#bu)" d="M1610.847 0h18.956v18.955h-18.956z"/></g></mask><g clip-path="url(#bt)" mask="url(#bv)"><defs><path id="bw" d="M1610.847 0h18.956v18.955h-18.956z"/></defs><clipPath id="bx"><use xlink:href="#bw" overflow="visible"/></clipPath><path clip-path="url(#bx)" fill="#E6501E" d="M1610.847 0h18.956v18.955h-18.956z"/></g></g><g clip-path="url(#b)"><defs><path id="by" d="M1385.061 7.694l10.022-3.608-3.207 9.22-6.815-5.612zM1382 7.163l10.602 8.733 4.99-14.347L1382 7.163z"/></defs><clipPath id="bA"><use xlink:href="#by" overflow="visible"/></clipPath><defs><filter id="bz" filterUnits="userSpaceOnUse" x="1382" y="1.549" width="15.592" height="14.347"><feColorMatrix values="1 0 0 0 0 0 1 0 0 0 0 0 1 0 0 0 0 0 1 0"/></filter></defs><mask maskUnits="userSpaceOnUse" x="1382" y="1.549" width="15.592" height="14.347" id="bC"><g filter="url(#bz)"><linearGradient id="bB" gradientUnits="userSpaceOnUse" y1="63.527" x2="1" y2="63.527" gradientTransform="rotate(180 931.394 17816.32) scale(560.7681)"><stop offset="0"/><stop offset="1" stop-color="#262626"/></linearGradient><path clip-path="url(#bA)" fill="url(#bB)" d="M1382 1.549h15.592v14.347H1382z"/></g></mask><g clip-path="url(#bA)" mask="url(#bC)"><defs><path id="bD" d="M1382 1.549h15.592v14.347H1382z"/></defs><clipPath id="bE"><use xlink:href="#bD" overflow="visible"/></clipPath><path clip-path="url(#bE)" fill="#E6501E" d="M1382 1.549h15.592v14.347H1382z"/></g></g><g clip-path="url(#b)"><defs><path id="bF" transform="rotate(-117.047 1524.35 3.704)" d="M1523.52-2.758h1.537v12.946h-1.537z"/></defs><clipPath id="bH"><use xlink:href="#bF" overflow="visible"/></clipPath><defs><filter id="bG" filterUnits="userSpaceOnUse" x="1518.175" y=".084" width="12.226" height="7.261"><feColorMatrix values="1 0 0 0 0 0 1 0 0 0 0 0 1 0 0 0 0 0 1 0"/></filter></defs><mask maskUnits="userSpaceOnUse" x="1518.175" y=".084" width="12.226" height="7.261" id="bJ"><g filter="url(#bG)"><linearGradient id="bI" gradientUnits="userSpaceOnUse" y1="63.527" x2="1" y2="63.527" gradientTransform="rotate(180 931.394 17813.816) scale(560.7681)"><stop offset="0"/><stop offset="1" stop-color="#262626"/></linearGradient><path clip-path="url(#bH)" fill="url(#bI)" d="M1518.175.084h12.226v7.261h-12.226z"/></g></mask><g clip-path="url(#bH)" mask="url(#bJ)"><defs><path id="bK" d="M1518.175.084h12.226v7.261h-12.226z"/></defs><clipPath id="bL"><use xlink:href="#bK" overflow="visible"/></clipPath><path clip-path="url(#bL)" fill="#E6501E" d="M1518.175.084h12.226v7.261h-12.226z"/></g></g><g clip-path="url(#b)"><defs><path id="bM" d="M1461.955 35.605l3.182-5.509h6.362l3.182 5.509-3.182 5.511h-6.362l-3.182-5.511zm2.295-7.047l-4.068 7.047 4.068 7.048h8.136l4.068-7.048-4.068-7.047h-8.136z"/></defs><clipPath id="bO"><use xlink:href="#bM" overflow="visible"/></clipPath><defs><filter id="bN" filterUnits="userSpaceOnUse" x="1460.182" y="28.558" width="16.272" height="14.095"><feColorMatrix values="1 0 0 0 0 0 1 0 0 0 0 0 1 0 0 0 0 0 1 0"/></filter></defs><mask maskUnits="userSpaceOnUse" x="1460.182" y="28.558" width="16.272" height="14.095" id="bQ"><g filter="url(#bN)"><linearGradient id="bP" gradientUnits="userSpaceOnUse" y1="63.527" x2="1" y2="63.527" gradientTransform="rotate(180 931.394 17829.762) scale(560.7681)"><stop offset="0"/><stop offset="1" stop-color="#262626"/></linearGradient><path clip-path="url(#bO)" fill="url(#bP)" d="M1460.182 28.558h16.272v14.095h-16.272z"/></g></mask><g clip-path="url(#bO)" mask="url(#bQ)"><defs><path id="bR" d="M1460.182 28.558h16.272v14.095h-16.272z"/></defs><clipPath id="bS"><use xlink:href="#bR" overflow="visible"/></clipPath><path clip-path="url(#bS)" fill="#E6501E" d="M1460.182 28.558h16.272v14.095h-16.272z"/></g></g><g clip-path="url(#b)"><defs><path id="bT" d="M1565.53 29.907c0-.813.661-1.474 1.473-1.474s1.472.661 1.472 1.474c0 .811-.66 1.472-1.472 1.472a1.475 1.475 0 0 1-1.473-1.472m-1.537 0a3.013 3.013 0 0 0 3.01 3.009 3.013 3.013 0 0 0 3.009-3.009c0-1.66-1.35-3.01-3.009-3.01-1.66 0-3.01 1.35-3.01 3.01"/></defs><clipPath id="bV"><use xlink:href="#bT" overflow="visible"/></clipPath><defs><filter id="bU" filterUnits="userSpaceOnUse" x="1563.993" y="26.897" width="6.019" height="6.019"><feColorMatrix values="1 0 0 0 0 0 1 0 0 0 0 0 1 0 0 0 0 0 1 0"/></filter></defs><mask maskUnits="userSpaceOnUse" x="1563.993" y="26.897" width="6.019" height="6.019" id="bX"><g filter="url(#bU)"><linearGradient id="bW" gradientUnits="userSpaceOnUse" y1="63.527" x2="1" y2="63.527" gradientTransform="rotate(180 931.394 17826.912) scale(560.7681)"><stop offset="0"/><stop offset="1" stop-color="#262626"/></linearGradient><path clip-path="url(#bV)" fill="url(#bW)" d="M1563.993 26.897h6.019v6.019h-6.019z"/></g></mask><g clip-path="url(#bV)" mask="url(#bX)"><defs><path id="bY" d="M1563.993 26.897h6.019v6.019h-6.019z"/></defs><clipPath id="bZ"><use xlink:href="#bY" overflow="visible"/></clipPath><path clip-path="url(#bZ)" fill="#E6501E" d="M1563.993 26.897h6.019v6.019h-6.019z"/></g></g><g clip-path="url(#b)"><defs><path id="ca" d="M1407.096 60.837a1.154 1.154 0 0 1 2.306 0c0 .636-.518 1.153-1.153 1.153s-1.153-.517-1.153-1.153m-1.537 0c0 1.483 1.207 2.69 2.69 2.69s2.689-1.207 2.689-2.69c0-1.482-1.206-2.689-2.689-2.689s-2.69 1.207-2.69 2.689"/></defs><clipPath id="cc"><use xlink:href="#ca" overflow="visible"/></clipPath><defs><filter id="cb" filterUnits="userSpaceOnUse" x="1405.559" y="58.148" width="5.379" height="5.379"><feColorMatrix values="1 0 0 0 0 0 1 0 0 0 0 0 1 0 0 0 0 0 1 0"/></filter></defs><mask maskUnits="userSpaceOnUse" x="1405.559" y="58.148" width="5.379" height="5.379" id="ce"><g filter="url(#cb)"><linearGradient id="cd" gradientUnits="userSpaceOnUse" y1="63.527" x2="1" y2="63.527" gradientTransform="rotate(180 931.394 17842.377) scale(560.7681)"><stop offset="0"/><stop offset="1" stop-color="#262626"/></linearGradient><path clip-path="url(#cc)" fill="url(#cd)" d="M1405.559 58.148h5.379v5.379h-5.379z"/></g></mask><g clip-path="url(#cc)" mask="url(#ce)"><defs><path id="cf" d="M1405.559 58.148h5.379v5.379h-5.379z"/></defs><clipPath id="cg"><use xlink:href="#cf" overflow="visible"/></clipPath><path clip-path="url(#cg)" fill="#E6501E" d="M1405.559 58.148h5.379v5.379h-5.379z"/></g></g><g clip-path="url(#b)"><defs><path id="ch" d="M1313.653 9.478c0-4.379 3.563-7.941 7.94-7.941 4.379 0 7.941 3.562 7.941 7.941 0 4.378-3.562 7.94-7.941 7.94-4.377 0-7.94-3.562-7.94-7.94m7.94-9.478c-5.226 0-9.477 4.252-9.477 9.478s4.251 9.477 9.477 9.477c5.227 0 9.478-4.251 9.478-9.477S1326.82 0 1321.593 0z"/></defs><clipPath id="cj"><use xlink:href="#ch" overflow="visible"/></clipPath><defs><filter id="ci" filterUnits="userSpaceOnUse" x="1312.116" y="0" width="18.955" height="18.955"><feColorMatrix values="1 0 0 0 0 0 1 0 0 0 0 0 1 0 0 0 0 0 1 0"/></filter></defs><mask maskUnits="userSpaceOnUse" x="1312.116" y="0" width="18.955" height="18.955" id="cl"><g filter="url(#ci)"><linearGradient id="ck" gradientUnits="userSpaceOnUse" y1="63.527" x2="1" y2="63.527" gradientTransform="rotate(180 931.394 17816.697) scale(560.7681)"><stop offset="0"/><stop offset="1" stop-color="#262626"/></linearGradient><path clip-path="url(#cj)" fill="url(#ck)" d="M1312.116 0h18.955v18.955h-18.955z"/></g></mask><g clip-path="url(#cj)" mask="url(#cl)"><defs><path id="cm" d="M1312.116 0h18.955v18.955h-18.955z"/></defs><clipPath id="cn"><use xlink:href="#cm" overflow="visible"/></clipPath><path clip-path="url(#cn)" fill="#E6501E" d="M1312.116 0h18.955v18.955h-18.955z"/></g></g></svg>