<?xml version="1.0" encoding="utf-8"?>
<!-- Generator: Adobe Illustrator 17.0.0, SVG Export Plug-In . SVG Version: 6.00 Build 0)  -->
<!DOCTYPE svg PUBLIC "-//W3C//DTD SVG 1.1//EN" "http://www.w3.org/Graphics/SVG/1.1/DTD/svg11.dtd">
<svg version="1.1" id="图层_1" xmlns="http://www.w3.org/2000/svg" xmlns:xlink="http://www.w3.org/1999/xlink" x="0px" y="0px"
	 width="103.43px" height="120.571px" viewBox="0 0 103.43 120.571" enable-background="new 0 0 103.43 120.571"
	 xml:space="preserve">
<g>
	<path fill="none" stroke="#E6501E" stroke-linecap="round" stroke-linejoin="round" stroke-miterlimit="10" d="M59.45,22.599
		c-1.488-3.401-4.874-5.782-8.823-5.782s-7.335,2.382-8.823,5.782h-4.668v12.528h26.983V22.599H59.45z"/>
	<path fill="none" stroke="#666666" stroke-linecap="round" stroke-linejoin="round" stroke-miterlimit="10" d="M83.392,49.618
		V36.779c0-5.17-4.191-9.361-9.361-9.361h-6.422"/>
	<path fill="none" stroke="#666666" stroke-linecap="round" stroke-linejoin="round" stroke-miterlimit="10" d="M33.646,27.417
		h-6.422c-5.17,0-9.361,4.191-9.361,9.361v62.914c0,5.17,4.191,9.361,9.361,9.361h46.807c5.17,0,9.361-4.191,9.361-9.361V75.498"/>
	
		<line opacity="0.08" fill="none" stroke="#231815" stroke-width="4" stroke-linecap="round" stroke-linejoin="round" stroke-miterlimit="10" x1="86.879" y1="48.618" x2="86.879" y2="35.779"/>
	
		<line opacity="0.08" fill="none" stroke="#231815" stroke-width="4" stroke-linecap="round" stroke-linejoin="round" stroke-miterlimit="10" x1="86.879" y1="100.693" x2="86.879" y2="74.497"/>
	<polyline fill="none" stroke="#32AF5A" stroke-linecap="round" stroke-linejoin="round" stroke-miterlimit="10" points="
		42.263,50.851 42.263,55.846 29.807,55.846 29.807,43.391 42.263,43.391 	"/>
	<g>
		<polyline fill="none" stroke="#32AF5A" stroke-miterlimit="10" points="45.516,44.04 37.903,51.652 34.25,47.998 		"/>
	</g>
	<line fill="none" stroke="#32AF5A" stroke-miterlimit="10" x1="49.589" y1="49.619" x2="71.692" y2="49.619"/>
	<polyline fill="none" stroke="#32AF5A" stroke-linecap="round" stroke-linejoin="round" stroke-miterlimit="10" points="
		42.263,70.094 42.263,75.089 29.807,75.089 29.807,62.634 42.263,62.634 	"/>
	<polyline fill="none" stroke="#32AF5A" stroke-linecap="round" stroke-linejoin="round" stroke-miterlimit="10" points="
		42.263,70.094 42.263,75.089 29.807,75.089 29.807,62.634 42.263,62.634 	"/>
	<g>
		<polyline fill="none" stroke="#32AF5A" stroke-miterlimit="10" points="45.516,63.283 37.903,70.895 34.25,67.241 		"/>
	</g>
	<line fill="none" stroke="#32AF5A" stroke-miterlimit="10" x1="49.589" y1="68.862" x2="60.64" y2="68.862"/>
	
		<polyline opacity="0.1" fill="none" stroke="#32AF5A" stroke-width="3" stroke-linecap="round" stroke-linejoin="round" stroke-miterlimit="10" points="
		31.592,54.062 31.592,45.176 40.478,45.223 	"/>
	
		<polyline opacity="0.1" fill="none" stroke="#32AF5A" stroke-width="3" stroke-linecap="round" stroke-linejoin="round" stroke-miterlimit="10" points="
		31.592,73.305 31.592,64.419 40.478,64.466 	"/>
	
		<polyline opacity="0.1" fill="none" stroke="#231815" stroke-width="4" stroke-linecap="round" stroke-linejoin="round" stroke-miterlimit="10" points="
		31.592,92.721 31.592,83.835 40.478,83.882 	"/>
	
		<path opacity="0.1" fill="none" stroke="#231815" stroke-width="4" stroke-linecap="round" stroke-linejoin="round" stroke-miterlimit="10" d="
		M40.478,83.882"/>
	<polyline fill="none" stroke="#666666" stroke-linecap="round" stroke-linejoin="round" stroke-miterlimit="10" points="
		42.263,82.117 42.263,94.506 29.807,94.506 29.807,82.05 42.263,82.117 	"/>
	
		<line opacity="0.2" fill="none" stroke="#E6501E" stroke-width="4" stroke-linecap="round" stroke-linejoin="round" stroke-miterlimit="10" x1="19.933" y1="118.571" x2="81.322" y2="118.571"/>
	<g>
		<g>
			<g>
				
					<rect x="65.45" y="60.083" transform="matrix(0.7071 0.7071 -0.7071 0.7071 74.4177 -27.7961)" fill="none" stroke="#999999" stroke-linecap="round" stroke-linejoin="round" stroke-miterlimit="10" width="10.624" height="31.699"/>
				<polygon fill="none" stroke="#999999" stroke-linecap="round" stroke-linejoin="round" stroke-miterlimit="10" points="
					51.179,95.515 53.69,85.491 61.202,93.004 				"/>
				<path fill="none" stroke="#999999" stroke-linecap="round" stroke-linejoin="round" stroke-miterlimit="10" d="M88.006,66.2
					l-7.512-7.512l4.683-4.683c1.562-1.562,4.095-1.562,5.657,0l1.855,1.855c1.562,1.562,1.562,4.095,0,5.657L88.006,66.2z"/>
			</g>
			
				<line opacity="0.1" fill="none" stroke="#231815" stroke-width="4" stroke-linecap="round" stroke-linejoin="round" stroke-miterlimit="10" x1="90.348" y1="59.175" x2="88.248" y2="61.274"/>
			
				<line opacity="0.1" fill="none" stroke="#231815" stroke-width="4" stroke-linecap="round" stroke-linejoin="round" stroke-miterlimit="10" x1="81.479" y1="68.043" x2="62.905" y2="86.617"/>
		</g>
		
			<line opacity="0.1" fill="none" stroke="#231815" stroke-width="4" stroke-linecap="round" stroke-linejoin="round" stroke-miterlimit="10" x1="56.919" y1="91.894" x2="53.961" y2="92.733"/>
	</g>
	
		<circle fill="none" stroke="#E6501E" stroke-linecap="round" stroke-linejoin="round" stroke-miterlimit="10" cx="50.627" cy="25.753" r="2.851"/>
	
		<circle opacity="0.4" fill="none" stroke="#3C96E6" stroke-linecap="round" stroke-linejoin="round" stroke-miterlimit="10" cx="72.121" cy="2" r="1.5"/>
	
		<circle opacity="0.4" fill="none" stroke="#3C96E6" stroke-linecap="round" stroke-linejoin="round" stroke-miterlimit="10" cx="3.114" cy="66.006" r="2.614"/>
	<g>
		
			<line opacity="0.2" fill="none" stroke="#3C96E6" stroke-linecap="round" stroke-linejoin="round" stroke-miterlimit="10" x1="18.648" y1="3.326" x2="18.648" y2="5.934"/>
		
			<line opacity="0.2" fill="none" stroke="#3C96E6" stroke-linecap="round" stroke-linejoin="round" stroke-miterlimit="10" x1="18.648" y1="11.938" x2="18.648" y2="14.546"/>
		
			<line opacity="0.2" fill="none" stroke="#3C96E6" stroke-linecap="round" stroke-linejoin="round" stroke-miterlimit="10" x1="14.682" y1="4.969" x2="16.526" y2="6.813"/>
		
			<line opacity="0.2" fill="none" stroke="#3C96E6" stroke-linecap="round" stroke-linejoin="round" stroke-miterlimit="10" x1="20.771" y1="11.059" x2="22.615" y2="12.903"/>
		
			<line opacity="0.2" fill="none" stroke="#3C96E6" stroke-linecap="round" stroke-linejoin="round" stroke-miterlimit="10" x1="13.038" y1="8.936" x2="15.647" y2="8.936"/>
		
			<line opacity="0.2" fill="none" stroke="#3C96E6" stroke-linecap="round" stroke-linejoin="round" stroke-miterlimit="10" x1="21.65" y1="8.936" x2="24.259" y2="8.936"/>
		
			<line opacity="0.2" fill="none" stroke="#3C96E6" stroke-linecap="round" stroke-linejoin="round" stroke-miterlimit="10" x1="14.682" y1="12.903" x2="16.526" y2="11.059"/>
		
			<line opacity="0.2" fill="none" stroke="#3C96E6" stroke-linecap="round" stroke-linejoin="round" stroke-miterlimit="10" x1="20.771" y1="6.813" x2="22.615" y2="4.969"/>
	</g>
	<g>
		
			<line opacity="0.2" fill="none" stroke="#3C96E6" stroke-linecap="round" stroke-linejoin="round" stroke-miterlimit="10" x1="99.027" y1="34.391" x2="99.027" y2="36.206"/>
		
			<line opacity="0.2" fill="none" stroke="#3C96E6" stroke-linecap="round" stroke-linejoin="round" stroke-miterlimit="10" x1="99.027" y1="40.383" x2="99.027" y2="42.198"/>
		
			<line opacity="0.2" fill="none" stroke="#3C96E6" stroke-linecap="round" stroke-linejoin="round" stroke-miterlimit="10" x1="96.267" y1="35.534" x2="97.55" y2="36.818"/>
		
			<line opacity="0.2" fill="none" stroke="#3C96E6" stroke-linecap="round" stroke-linejoin="round" stroke-miterlimit="10" x1="100.504" y1="39.772" x2="101.787" y2="41.055"/>
		
			<line opacity="0.2" fill="none" stroke="#3C96E6" stroke-linecap="round" stroke-linejoin="round" stroke-miterlimit="10" x1="95.123" y1="38.295" x2="96.938" y2="38.295"/>
		
			<line opacity="0.2" fill="none" stroke="#3C96E6" stroke-linecap="round" stroke-linejoin="round" stroke-miterlimit="10" x1="101.116" y1="38.295" x2="102.93" y2="38.295"/>
		
			<line opacity="0.2" fill="none" stroke="#3C96E6" stroke-linecap="round" stroke-linejoin="round" stroke-miterlimit="10" x1="96.267" y1="41.055" x2="97.55" y2="39.772"/>
		
			<line opacity="0.2" fill="none" stroke="#3C96E6" stroke-linecap="round" stroke-linejoin="round" stroke-miterlimit="10" x1="100.504" y1="36.818" x2="101.787" y2="35.534"/>
	</g>
</g>
</svg>
