<svg xmlns="http://www.w3.org/2000/svg" width="40.246" height="48.934" viewBox="0 0 40.246 48.934"><g opacity=".8"><path fill="#FFF" d="M29.689 6.009H3.823l.212.189A4.862 4.862 0 0 0 .5 10.874v32.695a4.865 4.865 0 0 0 4.865 4.865h24.324a4.865 4.865 0 0 0 4.865-4.865V10.874a4.865 4.865 0 0 0-4.865-4.865z"/><path fill="#666" d="M29.689 48.934H5.365A5.372 5.372 0 0 1 0 43.568V10.874a5.388 5.388 0 0 1 3.333-4.962.5.5 0 0 1 .49-.403h25.866a5.371 5.371 0 0 1 5.365 5.365v32.694a5.372 5.372 0 0 1-5.365 5.366zM4.427 6.509a.502.502 0 0 1-.254.17A4.378 4.378 0 0 0 1 10.874v32.694a4.37 4.37 0 0 0 4.365 4.365H29.69a4.37 4.37 0 0 0 4.365-4.365V10.874a4.37 4.37 0 0 0-4.365-4.365H4.427z"/></g><path fill="#FFF" d="M13.18 18.187v2.596H6.707V14.31h6.473"/><path fill="#32AF5A" d="M13.18 21.283H6.707a.5.5 0 0 1-.5-.5V14.31a.5.5 0 0 1 .5-.5h6.473a.5.5 0 0 1 0 1H7.207v5.474h5.473v-2.097a.5.5 0 0 1 1 0v2.597a.499.499 0 0 1-.5.499z"/><path fill="#FFF" d="M14.871 14.647l-3.956 3.956-1.899-1.899"/><path fill="#32AF5A" d="M10.915 19.31l-2.252-2.252.707-.707 1.545 1.545 3.602-3.602.707.707z"/><path fill="#FFF" d="M16.988 17.546h11.486"/><path fill="#32AF5A" d="M16.988 17.046h11.486v1H16.988z"/><path fill="#FFF" d="M13.18 28.187v2.596H6.707V24.31h6.473"/><path fill="#32AF5A" d="M13.18 31.283H6.707a.5.5 0 0 1-.5-.5V24.31a.5.5 0 0 1 .5-.5h6.473a.5.5 0 0 1 0 1H7.207v5.473h5.473v-2.097a.5.5 0 0 1 1 0v2.597c0 .277-.223.5-.5.5z"/><path fill="#FFF" d="M13.18 28.187v2.596H6.707V24.31h6.473"/><path fill="#32AF5A" d="M13.18 31.283H6.707a.5.5 0 0 1-.5-.5V24.31a.5.5 0 0 1 .5-.5h6.473a.5.5 0 0 1 0 1H7.207v5.473h5.473v-2.097a.5.5 0 0 1 1 0v2.597c0 .277-.223.5-.5.5z"/><path fill="#FFF" d="M14.871 24.647l-3.956 3.956-1.899-1.899"/><path fill="#32AF5A" d="M10.915 29.311l-2.252-2.253.707-.707 1.545 1.545 3.602-3.602.707.707z"/><path fill="#FFF" d="M16.988 27.547h5.743"/><path fill="#32AF5A" d="M16.988 27.047h5.743v1h-5.743z"/><g opacity=".1"><path fill="#FFF" d="M7.635 19.855v-4.618l4.618.025"/><path fill="#32AF5A" d="M7.635 21.355a1.5 1.5 0 0 1-1.5-1.5v-4.618a1.498 1.498 0 0 1 1.5-1.5h.008l4.618.024a1.5 1.5 0 0 1-.008 3h-.008l-3.11-.017v3.11a1.5 1.5 0 0 1-1.5 1.501z"/></g><g opacity=".1"><path fill="#FFF" d="M7.635 29.855v-4.617l4.618.024"/><path fill="#32AF5A" d="M7.635 31.355a1.5 1.5 0 0 1-1.5-1.5v-4.618c0-.399.159-.782.442-1.063.283-.281.682-.459 1.065-.437l4.618.024a1.5 1.5 0 0 1-.008 3h-.008l-3.11-.017v3.11a1.499 1.499 0 0 1-1.499 1.501z"/></g><g opacity=".1"><path fill="#FFF" d="M7.635 39.946v-4.618l4.618.025"/><path fill="#231815" d="M7.635 41.945a2 2 0 0 1-2-2v-4.617a2 2 0 0 1 .589-1.418c.378-.375.879-.621 1.421-.582l4.618.024a2 2 0 0 1-.011 4h-.011l-2.607-.014v2.606a1.999 1.999 0 0 1-1.999 2.001z"/></g><path fill="#FFF" d="M13.18 34.435v6.438H6.707V34.4l6.473.035"/><path fill="#666" d="M13.18 41.373H6.707a.5.5 0 0 1-.5-.5V34.4a.499.499 0 0 1 .5-.5h.002l6.473.034a.5.5 0 0 1 .498.5v6.438a.5.5 0 0 1-.5.501zm-5.973-1h5.473v-5.441l-5.473-.028v5.469z"/><path fill="#FFF" d="M31.863 23.444l3.904 3.904-11.648 11.648-3.904-3.904z"/><path fill="#999" d="M24.118 39.497a.504.504 0 0 1-.354-.146l-3.904-3.904a.5.5 0 0 1 0-.707l11.648-11.647a.5.5 0 0 1 .707 0l3.904 3.903a.5.5 0 0 1 0 .708L24.472 39.351a.504.504 0 0 1-.354.146zm-3.197-4.404l3.197 3.197L35.06 27.349l-3.197-3.196-10.942 10.94z"/><path fill="#FFF" d="M17.813 41.398l1.306-5.209 3.904 3.904z"/><path fill="#999" d="M17.813 41.897a.497.497 0 0 1-.485-.621l1.305-5.209a.496.496 0 0 1 .352-.36.495.495 0 0 1 .487.128l3.904 3.904a.5.5 0 0 1-.232.839l-5.209 1.305a.502.502 0 0 1-.122.014zm1.576-4.731l-.888 3.544 3.543-.888-2.655-2.656z"/><path fill="#FFF" d="M36.952 26.163l-3.904-3.904 2.009-2.009a2.68 2.68 0 0 1 3.789 0l.115.115a2.68 2.68 0 0 1 0 3.789l-2.009 2.009z"/><path fill="#999" d="M36.952 26.663a.502.502 0 0 1-.354-.146l-3.904-3.903a.5.5 0 0 1 0-.707l2.009-2.01a3.186 3.186 0 0 1 4.496 0l.116.116c.6.6.93 1.397.93 2.247 0 .849-.331 1.647-.931 2.248l-2.009 2.009a.498.498 0 0 1-.353.146zm-3.197-4.403l3.197 3.196 1.656-1.655c.412-.412.638-.959.638-1.541s-.227-1.13-.638-1.541l-.116-.116a2.182 2.182 0 0 0-3.081.001l-1.656 1.656z"/><g opacity=".1"><path fill="#FFF" d="M38.169 22.513l-1.091 1.091"/><path fill="#231815" d="M37.078 25.604a2 2 0 0 1-1.415-3.414l1.091-1.091a2 2 0 0 1 2.829 2.828l-1.091 1.091c-.391.39-.903.586-1.414.586z"/></g><g opacity=".1"><path fill="#FFF" d="M33.56 27.121l-9.653 9.653"/><path fill="#231815" d="M23.908 38.773a2 2 0 0 1-1.414-3.414l9.652-9.652a2 2 0 1 1 2.828 2.828l-9.652 9.652c-.39.391-.903.586-1.414.586z"/></g><g opacity=".1"><path fill="#FFF" d="M20.797 39.516l-1.538.436"/><path fill="#231815" d="M19.258 41.953a2 2 0 0 1-.546-3.925l1.537-.437a2 2 0 1 1 1.093 3.848l-1.537.437a1.99 1.99 0 0 1-.547.077z"/></g><path fill="#FFF" d="M22.112 3.505C21.339 1.738 19.579.5 17.527.5s-3.812 1.238-4.585 3.005h-2.426v6.51h14.022v-6.51h-2.426z"/><path fill="#E6501E" d="M24.538 10.515H10.516a.5.5 0 0 1-.5-.5v-6.51a.5.5 0 0 1 .5-.5h2.11A5.505 5.505 0 0 1 17.527 0a5.508 5.508 0 0 1 4.902 3.005h2.109a.5.5 0 0 1 .5.5v6.51a.5.5 0 0 1-.5.5zm-13.522-1h13.022v-5.51h-1.926a.499.499 0 0 1-.458-.3A4.508 4.508 0 0 0 17.527 1 4.507 4.507 0 0 0 13.4 3.705a.499.499 0 0 1-.458.3h-1.926v5.51z"/><circle fill="#FFF" cx="17.527" cy="5.144" r="1.482"/><path fill="#E6501E" d="M17.527 7.126c-1.093 0-1.982-.889-1.982-1.981s.889-1.982 1.982-1.982 1.982.89 1.982 1.982-.889 1.981-1.982 1.981zm0-2.964a.982.982 0 1 0 0 1.965.982.982 0 0 0 0-1.965z"/></svg>