<?xml version="1.0" encoding="utf-8"?>
<!-- Generator: Adobe Illustrator 17.0.0, SVG Export Plug-In . SVG Version: 6.00 Build 0)  -->
<!DOCTYPE svg PUBLIC "-//W3C//DTD SVG 1.1//EN" "http://www.w3.org/Graphics/SVG/1.1/DTD/svg11.dtd">
<svg version="1.1" id="图层_1" xmlns="http://www.w3.org/2000/svg" xmlns:xlink="http://www.w3.org/1999/xlink" x="0px" y="0px"
	 width="40.246px" height="48.934px" viewBox="0 0 40.246 48.934" enable-background="new 0 0 40.246 48.934" xml:space="preserve">
<g>
	<g opacity="0.8">
		<g>
			<g>
				<g>
					<path fill="#FFFFFF" d="M29.689,6.009H8.702H5.365H3.823l0.212,0.189C1.996,6.776,0.5,8.648,0.5,10.874v32.695
						c0,2.687,2.178,4.865,4.865,4.865h24.324c2.687,0,4.865-2.178,4.865-4.865V33.316v-2.321V10.874
						C34.554,8.187,32.376,6.009,29.689,6.009z"/>
				</g>
			</g>
		</g>
		<g>
			<g>
				<g>
					<path fill="#666666" d="M29.689,48.934H5.365C2.407,48.934,0,46.526,0,43.568V10.874C0,8.69,1.344,6.729,3.333,5.912
						c0.005-0.027,0.013-0.055,0.023-0.081c0.074-0.194,0.26-0.322,0.467-0.322h25.866c2.958,0,5.365,2.407,5.365,5.365v32.694
						C35.054,46.526,32.647,48.934,29.689,48.934z M4.427,6.509c-0.064,0.08-0.152,0.141-0.254,0.17C2.305,7.208,1,8.934,1,10.874
						v32.694c0,2.407,1.958,4.365,4.365,4.365h24.325c2.407,0,4.365-1.958,4.365-4.365V10.874c0-2.407-1.958-4.365-4.365-4.365
						H4.427z"/>
				</g>
			</g>
		</g>
	</g>
	<g>
		<g>
			<g>
				<g>
					<polyline fill="#FFFFFF" points="13.18,18.187 13.18,20.783 6.707,20.783 6.707,14.31 13.18,14.31 					"/>
				</g>
			</g>
		</g>
		<g>
			<g>
				<g>
					<path fill="#32AF5A" d="M13.18,21.283H6.707c-0.276,0-0.5-0.224-0.5-0.5V14.31c0-0.276,0.224-0.5,0.5-0.5h6.473
						c0.276,0,0.5,0.224,0.5,0.5s-0.224,0.5-0.5,0.5H7.207v5.474h5.473v-2.097c0-0.276,0.224-0.5,0.5-0.5s0.5,0.224,0.5,0.5v2.597
						C13.68,21.06,13.457,21.283,13.18,21.283z"/>
				</g>
			</g>
		</g>
	</g>
	<g>
		<g>
			<g>
				<g>
					<g>
						<polyline fill="#FFFFFF" points="14.871,14.647 10.915,18.603 9.016,16.704 						"/>
					</g>
				</g>
			</g>
			<g>
				<g>
					<g>
						<polygon fill="#32AF5A" points="10.915,19.31 8.663,17.058 9.37,16.351 10.915,17.896 14.517,14.294 15.224,15.001 						"/>
					</g>
				</g>
			</g>
		</g>
	</g>
	<g>
		<g>
			<g>
				<g>
					<line fill="#FFFFFF" x1="16.988" y1="17.546" x2="28.474" y2="17.546"/>
				</g>
			</g>
		</g>
		<g>
			<g>
				<g>
					<rect x="16.988" y="17.046" fill="#32AF5A" width="11.486" height="1"/>
				</g>
			</g>
		</g>
	</g>
	<g>
		<g>
			<g>
				<g>
					<polyline fill="#FFFFFF" points="13.18,28.187 13.18,30.783 6.707,30.783 6.707,24.31 13.18,24.31 					"/>
				</g>
			</g>
		</g>
		<g>
			<g>
				<g>
					<path fill="#32AF5A" d="M13.18,31.283H6.707c-0.276,0-0.5-0.224-0.5-0.5v-6.473c0-0.276,0.224-0.5,0.5-0.5h6.473
						c0.276,0,0.5,0.224,0.5,0.5s-0.224,0.5-0.5,0.5H7.207v5.473h5.473v-2.097c0-0.276,0.224-0.5,0.5-0.5s0.5,0.224,0.5,0.5v2.597
						C13.68,31.06,13.457,31.283,13.18,31.283z"/>
				</g>
			</g>
		</g>
	</g>
	<g>
		<g>
			<g>
				<g>
					<polyline fill="#FFFFFF" points="13.18,28.187 13.18,30.783 6.707,30.783 6.707,24.31 13.18,24.31 					"/>
				</g>
			</g>
		</g>
		<g>
			<g>
				<g>
					<path fill="#32AF5A" d="M13.18,31.283H6.707c-0.276,0-0.5-0.224-0.5-0.5v-6.473c0-0.276,0.224-0.5,0.5-0.5h6.473
						c0.276,0,0.5,0.224,0.5,0.5s-0.224,0.5-0.5,0.5H7.207v5.473h5.473v-2.097c0-0.276,0.224-0.5,0.5-0.5s0.5,0.224,0.5,0.5v2.597
						C13.68,31.06,13.457,31.283,13.18,31.283z"/>
				</g>
			</g>
		</g>
	</g>
	<g>
		<g>
			<g>
				<g>
					<g>
						<polyline fill="#FFFFFF" points="14.871,24.647 10.915,28.603 9.016,26.704 						"/>
					</g>
				</g>
			</g>
			<g>
				<g>
					<g>
						<polygon fill="#32AF5A" points="10.915,29.311 8.663,27.058 9.37,26.351 10.915,27.896 14.517,24.294 15.224,25.001 						"/>
					</g>
				</g>
			</g>
		</g>
	</g>
	<g>
		<g>
			<g>
				<g>
					<line fill="#FFFFFF" x1="16.988" y1="27.547" x2="22.731" y2="27.547"/>
				</g>
			</g>
		</g>
		<g>
			<g>
				<g>
					<rect x="16.988" y="27.047" fill="#32AF5A" width="5.743" height="1"/>
				</g>
			</g>
		</g>
	</g>
	<g opacity="0.1">
		<g>
			<g>
				<g>
					<polyline fill="#FFFFFF" points="7.635,19.855 7.635,15.237 12.253,15.262 					"/>
				</g>
			</g>
		</g>
		<g>
			<g>
				<g>
					<path fill="#32AF5A" d="M7.635,21.355c-0.829,0-1.5-0.672-1.5-1.5v-4.618c0-0.399,0.159-0.782,0.442-1.063
						c0.281-0.279,0.661-0.437,1.058-0.437c0.002,0,0.005,0,0.008,0l4.618,0.024c0.829,0.005,1.497,0.68,1.492,1.508
						c-0.004,0.826-0.675,1.492-1.5,1.492c-0.002,0-0.005,0-0.008,0l-3.11-0.017v3.11C9.135,20.684,8.463,21.355,7.635,21.355z"/>
				</g>
			</g>
		</g>
	</g>
	<g opacity="0.1">
		<g>
			<g>
				<g>
					<polyline fill="#FFFFFF" points="7.635,29.855 7.635,25.238 12.253,25.262 					"/>
				</g>
			</g>
		</g>
		<g>
			<g>
				<g>
					<path fill="#32AF5A" d="M7.635,31.355c-0.829,0-1.5-0.672-1.5-1.5v-4.618c0-0.399,0.159-0.782,0.442-1.063
						c0.283-0.281,0.682-0.459,1.065-0.437l4.618,0.024c0.829,0.005,1.497,0.68,1.492,1.508c-0.004,0.826-0.675,1.492-1.5,1.492
						c-0.002,0-0.005,0-0.008,0l-3.11-0.017v3.11C9.135,30.684,8.463,31.355,7.635,31.355z"/>
				</g>
			</g>
		</g>
	</g>
	<g opacity="0.1">
		<g>
			<g>
				<g>
					<polyline fill="#FFFFFF" points="7.635,39.946 7.635,35.328 12.253,35.353 					"/>
				</g>
			</g>
		</g>
		<g>
			<g>
				<g>
					<path fill="#231815" d="M7.635,41.945c-1.104,0-2-0.896-2-2v-4.617c0-0.532,0.212-1.043,0.589-1.418
						c0.378-0.375,0.879-0.621,1.421-0.582l4.618,0.024c1.104,0.006,1.995,0.906,1.989,2.011c-0.006,1.101-0.9,1.989-2,1.989
						c-0.003,0-0.007,0-0.011,0l-2.607-0.014v2.606C9.635,41.05,8.739,41.945,7.635,41.945z"/>
				</g>
			</g>
		</g>
	</g>
	<g opacity="0.1">
		<g>
			<g>
				<g>
					
						<path fill="#FFFFFF" stroke="#231815" stroke-width="4" stroke-linecap="round" stroke-linejoin="round" stroke-miterlimit="10" d="
						M12.253,35.353"/>
				</g>
			</g>
		</g>
	</g>
	<g>
		<g>
			<g>
				<g>
					<polyline fill="#FFFFFF" points="13.18,34.435 13.18,40.873 6.707,40.873 6.707,34.4 13.18,34.435 					"/>
				</g>
			</g>
		</g>
		<g>
			<g>
				<g>
					<path fill="#666666" d="M13.18,41.373H6.707c-0.276,0-0.5-0.224-0.5-0.5V34.4c0-0.133,0.053-0.261,0.147-0.354
						c0.094-0.093,0.22-0.146,0.353-0.146c0,0,0.002,0,0.002,0l6.473,0.034c0.275,0.001,0.498,0.225,0.498,0.5v6.438
						C13.68,41.149,13.457,41.373,13.18,41.373z M7.207,40.373h5.473v-5.441l-5.473-0.028V40.373z"/>
				</g>
			</g>
		</g>
	</g>
	<g>
		<g>
			<g>
				<g>
					<g>
						<g>
							<g>
								
									<rect x="25.23" y="22.984" transform="matrix(0.7071 0.7071 -0.7071 0.7071 30.2747 -10.6478)" fill="#FFFFFF" width="5.521" height="16.473"/>
							</g>
						</g>
					</g>
					<g>
						<g>
							<g>
								<path fill="#999999" d="M24.118,39.497c-0.133,0-0.26-0.053-0.354-0.146l-3.904-3.904c-0.195-0.195-0.195-0.512,0-0.707
									l11.648-11.647c0.195-0.195,0.512-0.195,0.707,0l3.904,3.903c0.094,0.094,0.146,0.221,0.146,0.354s-0.053,0.26-0.146,0.354
									L24.472,39.351C24.378,39.444,24.251,39.497,24.118,39.497z M20.921,35.093l3.197,3.197L35.06,27.349l-3.197-3.196
									L20.921,35.093z"/>
							</g>
						</g>
					</g>
				</g>
				<g>
					<g>
						<g>
							<g>
								<polygon fill="#FFFFFF" points="17.813,41.398 19.119,36.189 23.023,40.093 								"/>
							</g>
						</g>
					</g>
					<g>
						<g>
							<g>
								<path fill="#999999" d="M17.813,41.897c-0.131,0-0.259-0.052-0.354-0.146c-0.125-0.124-0.174-0.305-0.131-0.475l1.305-5.209
									c0.043-0.175,0.178-0.313,0.352-0.36c0.172-0.051,0.359,0.001,0.487,0.128l3.904,3.904c0.127,0.127,0.176,0.313,0.128,0.487
									c-0.048,0.173-0.186,0.308-0.36,0.352l-5.209,1.305C17.895,41.893,17.854,41.897,17.813,41.897z M19.389,37.166
									l-0.888,3.544l3.543-0.888L19.389,37.166z"/>
							</g>
						</g>
					</g>
				</g>
				<g>
					<g>
						<g>
							<g>
								<path fill="#FFFFFF" d="M36.952,26.163l-3.904-3.904l2.009-2.009c1.046-1.046,2.743-1.046,3.789,0l0.115,0.115
									c1.046,1.046,1.046,2.743,0,3.789L36.952,26.163z"/>
							</g>
						</g>
					</g>
					<g>
						<g>
							<g>
								<path fill="#999999" d="M36.952,26.663c-0.128,0-0.256-0.049-0.354-0.146l-3.904-3.903c-0.195-0.195-0.195-0.512,0-0.707
									l2.009-2.01c1.239-1.238,3.257-1.238,4.496,0l0.116,0.116c0.6,0.6,0.93,1.397,0.93,2.247c0,0.849-0.331,1.647-0.931,2.248
									l-2.009,2.009C37.208,26.614,37.08,26.663,36.952,26.663z M33.755,22.26l3.197,3.196l1.656-1.655
									c0.412-0.412,0.638-0.959,0.638-1.541s-0.227-1.13-0.638-1.541l-0.116-0.116c-0.849-0.849-2.232-0.848-3.081,0.001
									L33.755,22.26z"/>
							</g>
						</g>
					</g>
				</g>
			</g>
			<g opacity="0.1">
				<g>
					<g>
						<g>
							<line fill="#FFFFFF" x1="38.169" y1="22.513" x2="37.078" y2="23.604"/>
						</g>
					</g>
				</g>
				<g>
					<g>
						<g>
							<path fill="#231815" d="M37.078,25.604c-0.512,0-1.024-0.195-1.415-0.586c-0.781-0.781-0.781-2.048,0-2.828l1.091-1.091
								c0.782-0.782,2.048-0.78,2.829,0c0.781,0.781,0.781,2.048,0,2.828l-1.091,1.091C38.101,25.408,37.589,25.604,37.078,25.604z"
								/>
						</g>
					</g>
				</g>
			</g>
			<g opacity="0.1">
				<g>
					<g>
						<g>
							<line fill="#FFFFFF" x1="33.56" y1="27.121" x2="23.907" y2="36.774"/>
						</g>
					</g>
				</g>
				<g>
					<g>
						<g>
							<path fill="#231815" d="M23.908,38.773c-0.512,0-1.024-0.195-1.414-0.586c-0.781-0.781-0.781-2.047,0-2.828l9.652-9.652
								c0.78-0.781,2.048-0.781,2.828,0c0.781,0.781,0.781,2.047,0,2.828l-9.652,9.652C24.932,38.578,24.419,38.773,23.908,38.773z"
								/>
						</g>
					</g>
				</g>
			</g>
		</g>
		<g opacity="0.1">
			<g>
				<g>
					<g>
						<line fill="#FFFFFF" x1="20.797" y1="39.516" x2="19.259" y2="39.952"/>
					</g>
				</g>
			</g>
			<g>
				<g>
					<g>
						<path fill="#231815" d="M19.258,41.953c-0.872,0-1.673-0.574-1.923-1.455c-0.302-1.063,0.315-2.168,1.377-2.47l1.537-0.437
							c1.065-0.302,2.168,0.314,2.47,1.378c0.302,1.063-0.315,2.168-1.377,2.47l-1.537,0.437
							C19.623,41.928,19.439,41.953,19.258,41.953z"/>
					</g>
				</g>
			</g>
		</g>
	</g>
	<g>
		<g>
			<g>
				<g>
					<path fill="#FFFFFF" d="M22.112,3.505C21.339,1.738,19.579,0.5,17.527,0.5s-3.812,1.238-4.585,3.005h-2.426v6.51h14.022v-6.51
						H22.112z"/>
				</g>
			</g>
		</g>
		<g>
			<g>
				<g>
					<path fill="#E6501E" d="M24.538,10.515H10.516c-0.276,0-0.5-0.224-0.5-0.5v-6.51c0-0.276,0.224-0.5,0.5-0.5h2.11
						C13.563,1.169,15.452,0,17.527,0c2.075,0,3.964,1.169,4.902,3.005h2.109c0.276,0,0.5,0.224,0.5,0.5v6.51
						C25.038,10.291,24.814,10.515,24.538,10.515z M11.016,9.515h13.022v-5.51h-1.926c-0.199,0-0.378-0.117-0.458-0.3
						C20.935,2.062,19.315,1,17.527,1c-1.789,0-3.408,1.062-4.127,2.705c-0.08,0.183-0.259,0.3-0.458,0.3h-1.926V9.515z"/>
				</g>
			</g>
		</g>
	</g>
	<g>
		<g>
			<g>
				<g>
					<circle fill="#FFFFFF" cx="17.527" cy="5.144" r="1.482"/>
				</g>
			</g>
		</g>
		<g>
			<g>
				<g>
					<path fill="#E6501E" d="M17.527,7.126c-1.093,0-1.982-0.889-1.982-1.981s0.889-1.982,1.982-1.982s1.982,0.89,1.982,1.982
						S18.62,7.126,17.527,7.126z M17.527,4.162c-0.542,0-0.982,0.44-0.982,0.982c0,0.541,0.44,0.981,0.982,0.981
						s0.982-0.44,0.982-0.981C18.509,4.603,18.068,4.162,17.527,4.162z"/>
				</g>
			</g>
		</g>
	</g>
</g>
</svg>
