<?xml version="1.0" encoding="utf-8"?>
<!-- Generator: Adobe Illustrator 17.0.0, SVG Export Plug-In . SVG Version: 6.00 Build 0)  -->
<!DOCTYPE svg PUBLIC "-//W3C//DTD SVG 1.1//EN" "http://www.w3.org/Graphics/SVG/1.1/DTD/svg11.dtd">
<svg version="1.1" id="图层_1" xmlns="http://www.w3.org/2000/svg" xmlns:xlink="http://www.w3.org/1999/xlink" x="0px" y="0px"
	 width="1868.74px" height="63.527px" viewBox="0 0 1868.74 63.527" enable-background="new 0 0 1868.74 63.527"
	 xml:space="preserve">
<g>
	<defs>
		<rect id="SVGID_1_" width="1868.74" height="63.527"/>
	</defs>
	<clipPath id="SVGID_2_">
		<use xlink:href="#SVGID_1_"  overflow="visible"/>
	</clipPath>
	<g clip-path="url(#SVGID_2_)">
		<defs>
			<path id="SVGID_3_" d="M177.411,15.896L172.42,1.549l15.594,5.614L177.411,15.896z M174.93,4.086l3.207,9.22l6.815-5.612
				L174.93,4.086z"/>
		</defs>
		<clipPath id="SVGID_4_">
			<use xlink:href="#SVGID_3_"  overflow="visible"/>
		</clipPath>
		<defs>
			<filter id="Adobe_OpacityMaskFilter" filterUnits="userSpaceOnUse" x="172.42" y="1.549" width="15.594" height="14.347">
				<feColorMatrix  type="matrix" values="1 0 0 0 0  0 1 0 0 0  0 0 1 0 0  0 0 0 1 0"/>
			</filter>
		</defs>
		<mask maskUnits="userSpaceOnUse" x="172.42" y="1.549" width="15.594" height="14.347" id="SVGID_5_">
			<g filter="url(#Adobe_OpacityMaskFilter)">
				
					<linearGradient id="SVGID_6_" gradientUnits="userSpaceOnUse" x1="0" y1="63.527" x2="1" y2="63.527" gradientTransform="matrix(560.7681 0 0 -560.7681 5.9567 35632.6406)">
					<stop  offset="0" style="stop-color:#000000"/>
					<stop  offset="1" style="stop-color:#262626"/>
				</linearGradient>
				<rect x="172.42" y="1.549" clip-path="url(#SVGID_4_)" fill="url(#SVGID_6_)" width="15.594" height="14.347"/>
			</g>
		</mask>
		<g clip-path="url(#SVGID_4_)" mask="url(#SVGID_5_)">
			<g>
				<defs>
					<rect id="SVGID_7_" x="172.42" y="1.549" width="15.594" height="14.347"/>
				</defs>
				<clipPath id="SVGID_8_">
					<use xlink:href="#SVGID_7_"  overflow="visible"/>
				</clipPath>
				<rect x="172.42" y="1.549" clip-path="url(#SVGID_8_)" fill="#E6501E" width="15.594" height="14.347"/>
			</g>
		</g>
	</g>
	<g clip-path="url(#SVGID_2_)">
		<defs>
			
				<rect id="SVGID_9_" x="39.251" y="2.946" transform="matrix(-0.8904 -0.4551 0.4551 -0.8904 84.747 27.8327)" width="12.946" height="1.537"/>
		</defs>
		<clipPath id="SVGID_10_">
			<use xlink:href="#SVGID_9_"  overflow="visible"/>
		</clipPath>
		<defs>
			<filter id="Adobe_OpacityMaskFilter_1_" filterUnits="userSpaceOnUse" x="39.611" y="0.084" width="12.226" height="7.261">
				<feColorMatrix  type="matrix" values="1 0 0 0 0  0 1 0 0 0  0 0 1 0 0  0 0 0 1 0"/>
			</filter>
		</defs>
		<mask maskUnits="userSpaceOnUse" x="39.611" y="0.084" width="12.226" height="7.261" id="SVGID_11_">
			<g filter="url(#Adobe_OpacityMaskFilter_1_)">
				
					<linearGradient id="SVGID_12_" gradientUnits="userSpaceOnUse" x1="0" y1="63.527" x2="1" y2="63.527" gradientTransform="matrix(560.7681 0 0 -560.7681 5.9567 35627.6328)">
					<stop  offset="0" style="stop-color:#000000"/>
					<stop  offset="1" style="stop-color:#262626"/>
				</linearGradient>
				<rect x="39.611" y="0.084" clip-path="url(#SVGID_10_)" fill="url(#SVGID_12_)" width="12.226" height="7.261"/>
			</g>
		</mask>
		<g clip-path="url(#SVGID_10_)" mask="url(#SVGID_11_)">
			<g>
				<defs>
					<rect id="SVGID_13_" x="39.611" y="0.084" width="12.226" height="7.261"/>
				</defs>
				<clipPath id="SVGID_14_">
					<use xlink:href="#SVGID_13_"  overflow="visible"/>
				</clipPath>
				<rect x="39.611" y="0.084" clip-path="url(#SVGID_14_)" fill="#E6501E" width="12.226" height="7.261"/>
			</g>
		</g>
	</g>
	<g clip-path="url(#SVGID_2_)">
		<defs>
			<path id="SVGID_15_" d="M105.763,42.653h-8.137l-4.068-7.047l4.068-7.047h8.137l4.069,7.047L105.763,42.653z M98.513,41.116
				h6.363l3.182-5.51l-3.182-5.51h-6.363l-3.181,5.51L98.513,41.116z"/>
		</defs>
		<clipPath id="SVGID_16_">
			<use xlink:href="#SVGID_15_"  overflow="visible"/>
		</clipPath>
		<defs>
			<filter id="Adobe_OpacityMaskFilter_2_" filterUnits="userSpaceOnUse" x="93.558" y="28.559" width="16.274" height="14.094">
				<feColorMatrix  type="matrix" values="1 0 0 0 0  0 1 0 0 0  0 0 1 0 0  0 0 0 1 0"/>
			</filter>
		</defs>
		<mask maskUnits="userSpaceOnUse" x="93.558" y="28.559" width="16.274" height="14.094" id="SVGID_17_">
			<g filter="url(#Adobe_OpacityMaskFilter_2_)">
				
					<linearGradient id="SVGID_18_" gradientUnits="userSpaceOnUse" x1="0" y1="63.527" x2="1" y2="63.527" gradientTransform="matrix(560.7681 0 0 -560.7681 5.9567 35659.5234)">
					<stop  offset="0" style="stop-color:#000000"/>
					<stop  offset="1" style="stop-color:#262626"/>
				</linearGradient>
				<rect x="93.558" y="28.559" clip-path="url(#SVGID_16_)" fill="url(#SVGID_18_)" width="16.274" height="14.094"/>
			</g>
		</mask>
		<g clip-path="url(#SVGID_16_)" mask="url(#SVGID_17_)">
			<g>
				<defs>
					<rect id="SVGID_19_" x="93.558" y="28.559" width="16.274" height="14.094"/>
				</defs>
				<clipPath id="SVGID_20_">
					<use xlink:href="#SVGID_19_"  overflow="visible"/>
				</clipPath>
				<rect x="93.558" y="28.559" clip-path="url(#SVGID_20_)" fill="#E6501E" width="16.274" height="14.094"/>
			</g>
		</g>
	</g>
	<g clip-path="url(#SVGID_2_)">
		<defs>
			<path id="SVGID_21_" d="M1.537,29.907c0-0.813,0.661-1.474,1.473-1.474s1.473,0.661,1.473,1.474c0,0.811-0.661,1.472-1.473,1.472
				S1.537,30.718,1.537,29.907 M0,29.907c0,1.659,1.35,3.009,3.01,3.009s3.01-1.35,3.01-3.009c0-1.66-1.35-3.01-3.01-3.01
				S0,28.247,0,29.907"/>
		</defs>
		<clipPath id="SVGID_22_">
			<use xlink:href="#SVGID_21_"  overflow="visible"/>
		</clipPath>
		<defs>
			<filter id="Adobe_OpacityMaskFilter_3_" filterUnits="userSpaceOnUse" x="0" y="26.897" width="6.02" height="6.019">
				<feColorMatrix  type="matrix" values="1 0 0 0 0  0 1 0 0 0  0 0 1 0 0  0 0 0 1 0"/>
			</filter>
		</defs>
		<mask maskUnits="userSpaceOnUse" x="0" y="26.897" width="6.02" height="6.019" id="SVGID_23_">
			<g filter="url(#Adobe_OpacityMaskFilter_3_)">
				
					<linearGradient id="SVGID_24_" gradientUnits="userSpaceOnUse" x1="0" y1="63.527" x2="1" y2="63.527" gradientTransform="matrix(560.7681 0 0 -560.7681 5.9567 35653.8242)">
					<stop  offset="0" style="stop-color:#000000"/>
					<stop  offset="1" style="stop-color:#262626"/>
				</linearGradient>
				<rect y="26.897" clip-path="url(#SVGID_22_)" fill="url(#SVGID_24_)" width="6.02" height="6.019"/>
			</g>
		</mask>
		<g clip-path="url(#SVGID_22_)" mask="url(#SVGID_23_)">
			<g>
				<defs>
					<rect id="SVGID_25_" y="26.897" width="6.02" height="6.019"/>
				</defs>
				<clipPath id="SVGID_26_">
					<use xlink:href="#SVGID_25_"  overflow="visible"/>
				</clipPath>
				<rect y="26.897" clip-path="url(#SVGID_26_)" fill="#E6501E" width="5.957" height="6.019"/>
				<rect x="5.957" y="26.897" clip-path="url(#SVGID_26_)" fill="#E6501E" width="0.063" height="6.019"/>
			</g>
		</g>
	</g>
	<g clip-path="url(#SVGID_2_)">
		<defs>
			<path id="SVGID_27_" d="M160.611,60.837c0-0.636,0.517-1.152,1.152-1.152c0.637,0,1.153,0.516,1.153,1.152
				c0,0.636-0.516,1.153-1.153,1.153C161.128,61.99,160.611,61.473,160.611,60.837 M159.074,60.837c0,1.483,1.207,2.69,2.689,2.69
				c1.483,0,2.69-1.207,2.69-2.69c0-1.482-1.207-2.689-2.69-2.689C160.281,58.148,159.074,59.355,159.074,60.837"/>
		</defs>
		<clipPath id="SVGID_28_">
			<use xlink:href="#SVGID_27_"  overflow="visible"/>
		</clipPath>
		<defs>
			<filter id="Adobe_OpacityMaskFilter_4_" filterUnits="userSpaceOnUse" x="159.074" y="58.148" width="5.379" height="5.379">
				<feColorMatrix  type="matrix" values="1 0 0 0 0  0 1 0 0 0  0 0 1 0 0  0 0 0 1 0"/>
			</filter>
		</defs>
		<mask maskUnits="userSpaceOnUse" x="159.074" y="58.148" width="5.379" height="5.379" id="SVGID_29_">
			<g filter="url(#Adobe_OpacityMaskFilter_4_)">
				
					<linearGradient id="SVGID_30_" gradientUnits="userSpaceOnUse" x1="0" y1="63.527" x2="1" y2="63.527" gradientTransform="matrix(560.7681 0 0 -560.7681 5.9567 35684.7539)">
					<stop  offset="0" style="stop-color:#000000"/>
					<stop  offset="1" style="stop-color:#262626"/>
				</linearGradient>
				<rect x="159.074" y="58.148" clip-path="url(#SVGID_28_)" fill="url(#SVGID_30_)" width="5.379" height="5.379"/>
			</g>
		</mask>
		<g clip-path="url(#SVGID_28_)" mask="url(#SVGID_29_)">
			<g>
				<defs>
					<rect id="SVGID_31_" x="159.074" y="58.148" width="5.379" height="5.379"/>
				</defs>
				<clipPath id="SVGID_32_">
					<use xlink:href="#SVGID_31_"  overflow="visible"/>
				</clipPath>
				<rect x="159.074" y="58.148" clip-path="url(#SVGID_32_)" fill="#E6501E" width="5.379" height="5.379"/>
			</g>
		</g>
	</g>
	<g clip-path="url(#SVGID_2_)">
		<defs>
			<path id="SVGID_33_" d="M240.478,9.478c0-4.379,3.562-7.941,7.942-7.941c4.377,0,7.941,3.562,7.941,7.941
				c0,4.378-3.564,7.94-7.941,7.94C244.04,17.418,240.478,13.856,240.478,9.478 M248.42,0c-5.227,0-9.479,4.252-9.479,9.478
				s4.252,9.477,9.479,9.477c5.226,0,9.477-4.251,9.477-9.477S253.646,0,248.42,0z"/>
		</defs>
		<clipPath id="SVGID_34_">
			<use xlink:href="#SVGID_33_"  overflow="visible"/>
		</clipPath>
		<defs>
			<filter id="Adobe_OpacityMaskFilter_5_" filterUnits="userSpaceOnUse" x="238.941" y="0" width="18.956" height="18.955">
				<feColorMatrix  type="matrix" values="1 0 0 0 0  0 1 0 0 0  0 0 1 0 0  0 0 0 1 0"/>
			</filter>
		</defs>
		<mask maskUnits="userSpaceOnUse" x="238.941" y="0" width="18.956" height="18.955" id="SVGID_35_">
			<g filter="url(#Adobe_OpacityMaskFilter_5_)">
				
					<linearGradient id="SVGID_36_" gradientUnits="userSpaceOnUse" x1="0" y1="63.527" x2="1" y2="63.527" gradientTransform="matrix(560.7681 0 0 -560.7681 5.9567 35633.3945)">
					<stop  offset="0" style="stop-color:#000000"/>
					<stop  offset="1" style="stop-color:#262626"/>
				</linearGradient>
				<rect x="238.941" y="0" clip-path="url(#SVGID_34_)" fill="url(#SVGID_36_)" width="18.956" height="18.955"/>
			</g>
		</mask>
		<g clip-path="url(#SVGID_34_)" mask="url(#SVGID_35_)">
			<g>
				<defs>
					<rect id="SVGID_37_" x="238.941" y="0" width="18.956" height="18.955"/>
				</defs>
				<clipPath id="SVGID_38_">
					<use xlink:href="#SVGID_37_"  overflow="visible"/>
				</clipPath>
				<rect x="238.941" y="0" clip-path="url(#SVGID_38_)" fill="#E6501E" width="18.956" height="18.955"/>
			</g>
		</g>
	</g>
	<g clip-path="url(#SVGID_2_)">
		<defs>
			<path id="SVGID_39_" d="M473.662,4.086l10.021,3.608l-6.814,5.612L473.662,4.086z M476.142,15.896l10.603-8.733l-15.593-5.614
				L476.142,15.896z"/>
		</defs>
		<clipPath id="SVGID_40_">
			<use xlink:href="#SVGID_39_"  overflow="visible"/>
		</clipPath>
		<defs>
			<filter id="Adobe_OpacityMaskFilter_6_" filterUnits="userSpaceOnUse" x="471.152" y="1.549" width="15.593" height="14.347">
				<feColorMatrix  type="matrix" values="1 0 0 0 0  0 1 0 0 0  0 0 1 0 0  0 0 0 1 0"/>
			</filter>
		</defs>
		<mask maskUnits="userSpaceOnUse" x="471.152" y="1.549" width="15.593" height="14.347" id="SVGID_41_">
			<g filter="url(#Adobe_OpacityMaskFilter_6_)">
				
					<linearGradient id="SVGID_42_" gradientUnits="userSpaceOnUse" x1="0" y1="63.527" x2="1" y2="63.527" gradientTransform="matrix(560.7681 0 0 -560.7681 5.9567 35632.6406)">
					<stop  offset="0" style="stop-color:#000000"/>
					<stop  offset="1" style="stop-color:#262626"/>
				</linearGradient>
				<rect x="471.152" y="1.549" clip-path="url(#SVGID_40_)" fill="url(#SVGID_42_)" width="15.593" height="14.347"/>
			</g>
		</mask>
		<g clip-path="url(#SVGID_40_)" mask="url(#SVGID_41_)">
			<g>
				<defs>
					<rect id="SVGID_43_" x="471.152" y="1.549" width="15.593" height="14.347"/>
				</defs>
				<clipPath id="SVGID_44_">
					<use xlink:href="#SVGID_43_"  overflow="visible"/>
				</clipPath>
				<rect x="471.152" y="1.549" clip-path="url(#SVGID_44_)" fill="#E6501E" width="15.593" height="14.347"/>
			</g>
		</g>
	</g>
	<g clip-path="url(#SVGID_2_)">
		<defs>
			
				<rect id="SVGID_45_" x="337.983" y="2.946" transform="matrix(-0.8904 -0.4551 0.4551 -0.8904 649.4819 163.7861)" width="12.946" height="1.538"/>
		</defs>
		<clipPath id="SVGID_46_">
			<use xlink:href="#SVGID_45_"  overflow="visible"/>
		</clipPath>
		<defs>
			<filter id="Adobe_OpacityMaskFilter_7_" filterUnits="userSpaceOnUse" x="338.342" y="0.084" width="12.228" height="7.261">
				<feColorMatrix  type="matrix" values="1 0 0 0 0  0 1 0 0 0  0 0 1 0 0  0 0 0 1 0"/>
			</filter>
		</defs>
		<mask maskUnits="userSpaceOnUse" x="338.342" y="0.084" width="12.228" height="7.261" id="SVGID_47_">
			<g filter="url(#Adobe_OpacityMaskFilter_7_)">
				
					<linearGradient id="SVGID_48_" gradientUnits="userSpaceOnUse" x1="0" y1="63.527" x2="1" y2="63.527" gradientTransform="matrix(560.7681 0 0 -560.7681 5.9567 35627.6328)">
					<stop  offset="0" style="stop-color:#000000"/>
					<stop  offset="1" style="stop-color:#262626"/>
				</linearGradient>
				<rect x="338.342" y="0.084" clip-path="url(#SVGID_46_)" fill="url(#SVGID_48_)" width="12.228" height="7.261"/>
			</g>
		</mask>
		<g clip-path="url(#SVGID_46_)" mask="url(#SVGID_47_)">
			<g>
				<defs>
					<rect id="SVGID_49_" x="338.342" y="0.084" width="12.228" height="7.261"/>
				</defs>
				<clipPath id="SVGID_50_">
					<use xlink:href="#SVGID_49_"  overflow="visible"/>
				</clipPath>
				<rect x="338.342" y="0.084" clip-path="url(#SVGID_50_)" fill="#E6501E" width="12.228" height="7.261"/>
			</g>
		</g>
	</g>
	<g clip-path="url(#SVGID_2_)">
		<defs>
			<path id="SVGID_51_" d="M394.064,35.605l3.181-5.509h6.363l3.18,5.509l-3.18,5.511h-6.363L394.064,35.605z M396.358,28.558
				l-4.068,7.047l4.068,7.048h8.136l4.069-7.048l-4.069-7.047H396.358z"/>
		</defs>
		<clipPath id="SVGID_52_">
			<use xlink:href="#SVGID_51_"  overflow="visible"/>
		</clipPath>
		<defs>
			<filter id="Adobe_OpacityMaskFilter_8_" filterUnits="userSpaceOnUse" x="392.29" y="28.558" width="16.273" height="14.095">
				<feColorMatrix  type="matrix" values="1 0 0 0 0  0 1 0 0 0  0 0 1 0 0  0 0 0 1 0"/>
			</filter>
		</defs>
		<mask maskUnits="userSpaceOnUse" x="392.29" y="28.558" width="16.273" height="14.095" id="SVGID_53_">
			<g filter="url(#Adobe_OpacityMaskFilter_8_)">
				
					<linearGradient id="SVGID_54_" gradientUnits="userSpaceOnUse" x1="0" y1="63.527" x2="1" y2="63.527" gradientTransform="matrix(560.7681 0 0 -560.7681 5.9567 35659.5234)">
					<stop  offset="0" style="stop-color:#000000"/>
					<stop  offset="1" style="stop-color:#262626"/>
				</linearGradient>
				<rect x="392.29" y="28.558" clip-path="url(#SVGID_52_)" fill="url(#SVGID_54_)" width="16.273" height="14.095"/>
			</g>
		</mask>
		<g clip-path="url(#SVGID_52_)" mask="url(#SVGID_53_)">
			<g>
				<defs>
					<rect id="SVGID_55_" x="392.29" y="28.558" width="16.273" height="14.095"/>
				</defs>
				<clipPath id="SVGID_56_">
					<use xlink:href="#SVGID_55_"  overflow="visible"/>
				</clipPath>
				<rect x="392.29" y="28.558" clip-path="url(#SVGID_56_)" fill="#E6501E" width="16.273" height="14.095"/>
			</g>
		</g>
	</g>
	<g clip-path="url(#SVGID_2_)">
		<defs>
			<path id="SVGID_57_" d="M300.269,29.907c0-0.813,0.66-1.474,1.472-1.474s1.473,0.661,1.473,1.474
				c0,0.811-0.661,1.472-1.473,1.472S300.269,30.718,300.269,29.907 M298.732,29.907c0,1.659,1.35,3.009,3.009,3.009
				c1.661,0,3.011-1.35,3.011-3.009c0-1.66-1.35-3.01-3.011-3.01C300.082,26.897,298.732,28.247,298.732,29.907"/>
		</defs>
		<clipPath id="SVGID_58_">
			<use xlink:href="#SVGID_57_"  overflow="visible"/>
		</clipPath>
		<defs>
			<filter id="Adobe_OpacityMaskFilter_9_" filterUnits="userSpaceOnUse" x="298.732" y="26.897" width="6.02" height="6.019">
				<feColorMatrix  type="matrix" values="1 0 0 0 0  0 1 0 0 0  0 0 1 0 0  0 0 0 1 0"/>
			</filter>
		</defs>
		<mask maskUnits="userSpaceOnUse" x="298.732" y="26.897" width="6.02" height="6.019" id="SVGID_59_">
			<g filter="url(#Adobe_OpacityMaskFilter_9_)">
				
					<linearGradient id="SVGID_60_" gradientUnits="userSpaceOnUse" x1="0" y1="63.527" x2="1" y2="63.527" gradientTransform="matrix(560.7681 0 0 -560.7681 5.9567 35653.8242)">
					<stop  offset="0" style="stop-color:#000000"/>
					<stop  offset="1" style="stop-color:#262626"/>
				</linearGradient>
				<rect x="298.732" y="26.897" clip-path="url(#SVGID_58_)" fill="url(#SVGID_60_)" width="6.02" height="6.019"/>
			</g>
		</mask>
		<g clip-path="url(#SVGID_58_)" mask="url(#SVGID_59_)">
			<g>
				<defs>
					<rect id="SVGID_61_" x="298.732" y="26.897" width="6.02" height="6.019"/>
				</defs>
				<clipPath id="SVGID_62_">
					<use xlink:href="#SVGID_61_"  overflow="visible"/>
				</clipPath>
				<rect x="298.732" y="26.897" clip-path="url(#SVGID_62_)" fill="#E6501E" width="6.02" height="6.019"/>
			</g>
		</g>
	</g>
	<g clip-path="url(#SVGID_2_)">
		<defs>
			<path id="SVGID_63_" d="M459.343,60.837c0-0.636,0.516-1.152,1.153-1.152c0.635,0,1.152,0.516,1.152,1.152
				c0,0.636-0.517,1.153-1.152,1.153C459.859,61.99,459.343,61.473,459.343,60.837 M457.806,60.837c0,1.483,1.207,2.69,2.69,2.69
				c1.482,0,2.689-1.207,2.689-2.69c0-1.482-1.207-2.689-2.689-2.689C459.013,58.148,457.806,59.355,457.806,60.837"/>
		</defs>
		<clipPath id="SVGID_64_">
			<use xlink:href="#SVGID_63_"  overflow="visible"/>
		</clipPath>
		<defs>
			<filter id="Adobe_OpacityMaskFilter_10_" filterUnits="userSpaceOnUse" x="457.806" y="58.148" width="5.379" height="5.379">
				<feColorMatrix  type="matrix" values="1 0 0 0 0  0 1 0 0 0  0 0 1 0 0  0 0 0 1 0"/>
			</filter>
		</defs>
		<mask maskUnits="userSpaceOnUse" x="457.806" y="58.148" width="5.379" height="5.379" id="SVGID_65_">
			<g filter="url(#Adobe_OpacityMaskFilter_10_)">
				
					<linearGradient id="SVGID_66_" gradientUnits="userSpaceOnUse" x1="0" y1="63.527" x2="1" y2="63.527" gradientTransform="matrix(560.7681 0 0 -560.7681 5.9567 35684.7539)">
					<stop  offset="0" style="stop-color:#000000"/>
					<stop  offset="1" style="stop-color:#262626"/>
				</linearGradient>
				<rect x="457.806" y="58.148" clip-path="url(#SVGID_64_)" fill="url(#SVGID_66_)" width="5.379" height="5.379"/>
			</g>
		</mask>
		<g clip-path="url(#SVGID_64_)" mask="url(#SVGID_65_)">
			<g>
				<defs>
					<rect id="SVGID_67_" x="457.806" y="58.148" width="5.379" height="5.379"/>
				</defs>
				<clipPath id="SVGID_68_">
					<use xlink:href="#SVGID_67_"  overflow="visible"/>
				</clipPath>
				<rect x="457.806" y="58.148" clip-path="url(#SVGID_68_)" fill="#E6501E" width="5.379" height="5.379"/>
			</g>
		</g>
	</g>
	<g clip-path="url(#SVGID_2_)">
		<defs>
			<path id="SVGID_69_" d="M539.21,9.478c0-4.379,3.562-7.941,7.941-7.941c4.378,0,7.94,3.562,7.94,7.941
				c0,4.378-3.562,7.94-7.94,7.94C542.772,17.418,539.21,13.856,539.21,9.478 M547.151,0c-5.227,0-9.478,4.252-9.478,9.478
				s4.251,9.477,9.478,9.477c5.226,0,9.477-4.251,9.477-9.477S552.377,0,547.151,0z"/>
		</defs>
		<clipPath id="SVGID_70_">
			<use xlink:href="#SVGID_69_"  overflow="visible"/>
		</clipPath>
		<defs>
			<filter id="Adobe_OpacityMaskFilter_11_" filterUnits="userSpaceOnUse" x="537.673" y="0" width="18.955" height="18.955">
				<feColorMatrix  type="matrix" values="1 0 0 0 0  0 1 0 0 0  0 0 1 0 0  0 0 0 1 0"/>
			</filter>
		</defs>
		<mask maskUnits="userSpaceOnUse" x="537.673" y="0" width="18.955" height="18.955" id="SVGID_71_">
			<g filter="url(#Adobe_OpacityMaskFilter_11_)">
				
					<linearGradient id="SVGID_72_" gradientUnits="userSpaceOnUse" x1="0" y1="63.527" x2="1" y2="63.527" gradientTransform="matrix(560.7681 0 0 -560.7681 5.9567 35633.3945)">
					<stop  offset="0" style="stop-color:#000000"/>
					<stop  offset="1" style="stop-color:#262626"/>
				</linearGradient>
				<rect x="537.673" y="0" clip-path="url(#SVGID_70_)" fill="url(#SVGID_72_)" width="18.955" height="18.955"/>
			</g>
		</mask>
		<g clip-path="url(#SVGID_70_)" mask="url(#SVGID_71_)">
			<g>
				<defs>
					<rect id="SVGID_73_" x="537.673" y="0" width="18.955" height="18.955"/>
				</defs>
				<clipPath id="SVGID_74_">
					<use xlink:href="#SVGID_73_"  overflow="visible"/>
				</clipPath>
				<rect x="537.673" y="0" clip-path="url(#SVGID_74_)" fill="#E6501E" width="18.955" height="18.955"/>
			</g>
		</g>
	</g>
	<g clip-path="url(#SVGID_2_)">
		<defs>
			<path id="SVGID_75_" d="M1683.792,7.694l10.022-3.608l-3.207,9.22L1683.792,7.694z M1680.73,7.163l10.604,8.732l4.99-14.346
				L1680.73,7.163z"/>
		</defs>
		<clipPath id="SVGID_76_">
			<use xlink:href="#SVGID_75_"  overflow="visible"/>
		</clipPath>
		<defs>
			<filter id="Adobe_OpacityMaskFilter_12_" filterUnits="userSpaceOnUse" x="1680.73" y="1.549" width="15.594" height="14.346">
				<feColorMatrix  type="matrix" values="1 0 0 0 0  0 1 0 0 0  0 0 1 0 0  0 0 0 1 0"/>
			</filter>
		</defs>
		<mask maskUnits="userSpaceOnUse" x="1680.73" y="1.549" width="15.594" height="14.346" id="SVGID_77_">
			<g filter="url(#Adobe_OpacityMaskFilter_12_)">
				
					<linearGradient id="SVGID_78_" gradientUnits="userSpaceOnUse" x1="0" y1="63.527" x2="1" y2="63.527" gradientTransform="matrix(-560.7681 0 0 -560.7681 1862.7875 35632.6406)">
					<stop  offset="0" style="stop-color:#000000"/>
					<stop  offset="1" style="stop-color:#262626"/>
				</linearGradient>
				<rect x="1680.73" y="1.549" clip-path="url(#SVGID_76_)" fill="url(#SVGID_78_)" width="15.594" height="14.346"/>
			</g>
		</mask>
		<g clip-path="url(#SVGID_76_)" mask="url(#SVGID_77_)">
			<g>
				<defs>
					<rect id="SVGID_79_" x="1680.73" y="1.549" width="15.594" height="14.346"/>
				</defs>
				<clipPath id="SVGID_80_">
					<use xlink:href="#SVGID_79_"  overflow="visible"/>
				</clipPath>
				<rect x="1680.73" y="1.549" clip-path="url(#SVGID_80_)" fill="#E6501E" width="15.594" height="14.346"/>
			</g>
		</g>
	</g>
	<g clip-path="url(#SVGID_2_)">
		<defs>
			
				<rect id="SVGID_81_" x="1822.25" y="-2.758" transform="matrix(-0.4558 -0.8901 0.8901 -0.4558 2650.6475 1628.0438)" width="1.538" height="12.945"/>
		</defs>
		<clipPath id="SVGID_82_">
			<use xlink:href="#SVGID_81_"  overflow="visible"/>
		</clipPath>
		<defs>
			<filter id="Adobe_OpacityMaskFilter_13_" filterUnits="userSpaceOnUse" x="1816.906" y="0.084" width="12.227" height="7.261">
				<feColorMatrix  type="matrix" values="1 0 0 0 0  0 1 0 0 0  0 0 1 0 0  0 0 0 1 0"/>
			</filter>
		</defs>
		<mask maskUnits="userSpaceOnUse" x="1816.906" y="0.084" width="12.227" height="7.261" id="SVGID_83_">
			<g filter="url(#Adobe_OpacityMaskFilter_13_)">
				
					<linearGradient id="SVGID_84_" gradientUnits="userSpaceOnUse" x1="0" y1="63.527" x2="1" y2="63.527" gradientTransform="matrix(-560.7681 0 0 -560.7681 1862.7875 35627.6328)">
					<stop  offset="0" style="stop-color:#000000"/>
					<stop  offset="1" style="stop-color:#262626"/>
				</linearGradient>
				<rect x="1816.906" y="0.084" clip-path="url(#SVGID_82_)" fill="url(#SVGID_84_)" width="12.227" height="7.261"/>
			</g>
		</mask>
		<g clip-path="url(#SVGID_82_)" mask="url(#SVGID_83_)">
			<g>
				<defs>
					<rect id="SVGID_85_" x="1816.906" y="0.084" width="12.227" height="7.261"/>
				</defs>
				<clipPath id="SVGID_86_">
					<use xlink:href="#SVGID_85_"  overflow="visible"/>
				</clipPath>
				<rect x="1816.906" y="0.084" clip-path="url(#SVGID_86_)" fill="#E6501E" width="12.227" height="7.261"/>
			</g>
		</g>
	</g>
	<g clip-path="url(#SVGID_2_)">
		<defs>
			<path id="SVGID_87_" d="M1760.687,35.605l3.181-5.509h6.364l3.18,5.509l-3.18,5.511h-6.364L1760.687,35.605z M1762.981,28.558
				l-4.069,7.047l4.069,7.048h8.137l4.068-7.048l-4.068-7.047H1762.981z"/>
		</defs>
		<clipPath id="SVGID_88_">
			<use xlink:href="#SVGID_87_"  overflow="visible"/>
		</clipPath>
		<defs>
			<filter id="Adobe_OpacityMaskFilter_14_" filterUnits="userSpaceOnUse" x="1758.912" y="28.558" width="16.274" height="14.095">
				<feColorMatrix  type="matrix" values="1 0 0 0 0  0 1 0 0 0  0 0 1 0 0  0 0 0 1 0"/>
			</filter>
		</defs>
		<mask maskUnits="userSpaceOnUse" x="1758.912" y="28.558" width="16.274" height="14.095" id="SVGID_89_">
			<g filter="url(#Adobe_OpacityMaskFilter_14_)">
				
					<linearGradient id="SVGID_90_" gradientUnits="userSpaceOnUse" x1="0" y1="63.527" x2="1" y2="63.527" gradientTransform="matrix(-560.7681 0 0 -560.7681 1862.7875 35659.5234)">
					<stop  offset="0" style="stop-color:#000000"/>
					<stop  offset="1" style="stop-color:#262626"/>
				</linearGradient>
				<rect x="1758.912" y="28.558" clip-path="url(#SVGID_88_)" fill="url(#SVGID_90_)" width="16.274" height="14.095"/>
			</g>
		</mask>
		<g clip-path="url(#SVGID_88_)" mask="url(#SVGID_89_)">
			<g>
				<defs>
					<rect id="SVGID_91_" x="1758.912" y="28.558" width="16.274" height="14.095"/>
				</defs>
				<clipPath id="SVGID_92_">
					<use xlink:href="#SVGID_91_"  overflow="visible"/>
				</clipPath>
				<rect x="1758.912" y="28.558" clip-path="url(#SVGID_92_)" fill="#E6501E" width="16.274" height="14.095"/>
			</g>
		</g>
	</g>
	<g clip-path="url(#SVGID_2_)">
		<defs>
			<path id="SVGID_93_" d="M1864.261,29.907c0-0.813,0.661-1.474,1.473-1.474s1.474,0.661,1.474,1.474
				c0,0.811-0.662,1.472-1.474,1.472S1864.261,30.718,1864.261,29.907 M1862.724,29.907c0,1.659,1.351,3.009,3.01,3.009
				c1.66,0,3.01-1.35,3.01-3.009c0-1.66-1.35-3.01-3.01-3.01C1864.075,26.897,1862.724,28.247,1862.724,29.907"/>
		</defs>
		<clipPath id="SVGID_94_">
			<use xlink:href="#SVGID_93_"  overflow="visible"/>
		</clipPath>
		<defs>
			<filter id="Adobe_OpacityMaskFilter_15_" filterUnits="userSpaceOnUse" x="1862.724" y="26.897" width="6.02" height="6.019">
				<feColorMatrix  type="matrix" values="1 0 0 0 0  0 1 0 0 0  0 0 1 0 0  0 0 0 1 0"/>
			</filter>
		</defs>
		<mask maskUnits="userSpaceOnUse" x="1862.724" y="26.897" width="6.02" height="6.019" id="SVGID_95_">
			<g filter="url(#Adobe_OpacityMaskFilter_15_)">
				
					<linearGradient id="SVGID_96_" gradientUnits="userSpaceOnUse" x1="0" y1="63.527" x2="1" y2="63.527" gradientTransform="matrix(-560.7681 0 0 -560.7681 1862.7875 35653.8242)">
					<stop  offset="0" style="stop-color:#000000"/>
					<stop  offset="1" style="stop-color:#262626"/>
				</linearGradient>
				<rect x="1862.724" y="26.897" clip-path="url(#SVGID_94_)" fill="url(#SVGID_96_)" width="6.02" height="6.019"/>
			</g>
		</mask>
		<g clip-path="url(#SVGID_94_)" mask="url(#SVGID_95_)">
			<g>
				<defs>
					<rect id="SVGID_97_" x="1862.724" y="26.897" width="6.02" height="6.019"/>
				</defs>
				<clipPath id="SVGID_98_">
					<use xlink:href="#SVGID_97_"  overflow="visible"/>
				</clipPath>
				<rect x="1862.788" y="26.897" clip-path="url(#SVGID_98_)" fill="#E6501E" width="5.956" height="6.019"/>
				<rect x="1862.724" y="26.897" clip-path="url(#SVGID_98_)" fill="#E6501E" width="0.064" height="6.019"/>
			</g>
		</g>
	</g>
	<g clip-path="url(#SVGID_2_)">
		<defs>
			<path id="SVGID_99_" d="M1705.828,60.837c0-0.636,0.517-1.152,1.152-1.152c0.636,0,1.153,0.516,1.153,1.152
				c0,0.636-0.517,1.153-1.153,1.153C1706.345,61.99,1705.828,61.473,1705.828,60.837 M1704.291,60.837
				c0,1.483,1.207,2.69,2.689,2.69c1.484,0,2.691-1.207,2.691-2.69c0-1.482-1.207-2.689-2.691-2.689
				C1705.498,58.148,1704.291,59.355,1704.291,60.837"/>
		</defs>
		<clipPath id="SVGID_100_">
			<use xlink:href="#SVGID_99_"  overflow="visible"/>
		</clipPath>
		<defs>
			<filter id="Adobe_OpacityMaskFilter_16_" filterUnits="userSpaceOnUse" x="1704.291" y="58.148" width="5.38" height="5.379">
				<feColorMatrix  type="matrix" values="1 0 0 0 0  0 1 0 0 0  0 0 1 0 0  0 0 0 1 0"/>
			</filter>
		</defs>
		<mask maskUnits="userSpaceOnUse" x="1704.291" y="58.148" width="5.38" height="5.379" id="SVGID_101_">
			<g filter="url(#Adobe_OpacityMaskFilter_16_)">
				
					<linearGradient id="SVGID_102_" gradientUnits="userSpaceOnUse" x1="0" y1="63.527" x2="1" y2="63.527" gradientTransform="matrix(-560.7681 0 0 -560.7681 1862.7875 35684.7539)">
					<stop  offset="0" style="stop-color:#000000"/>
					<stop  offset="1" style="stop-color:#262626"/>
				</linearGradient>
				<rect x="1704.291" y="58.148" clip-path="url(#SVGID_100_)" fill="url(#SVGID_102_)" width="5.38" height="5.379"/>
			</g>
		</mask>
		<g clip-path="url(#SVGID_100_)" mask="url(#SVGID_101_)">
			<g>
				<defs>
					<rect id="SVGID_103_" x="1704.291" y="58.148" width="5.38" height="5.379"/>
				</defs>
				<clipPath id="SVGID_104_">
					<use xlink:href="#SVGID_103_"  overflow="visible"/>
				</clipPath>
				<rect x="1704.291" y="58.148" clip-path="url(#SVGID_104_)" fill="#E6501E" width="5.38" height="5.379"/>
			</g>
		</g>
	</g>
	<g clip-path="url(#SVGID_2_)">
		<defs>
			<path id="SVGID_105_" d="M1612.384,9.478c0-4.379,3.562-7.941,7.941-7.941c4.378,0,7.941,3.562,7.941,7.941
				c0,4.378-3.563,7.94-7.941,7.94C1615.946,17.418,1612.384,13.856,1612.384,9.478 M1620.325,0c-5.226,0-9.478,4.252-9.478,9.478
				s4.252,9.477,9.478,9.477c5.226,0,9.478-4.251,9.478-9.477S1625.551,0,1620.325,0z"/>
		</defs>
		<clipPath id="SVGID_106_">
			<use xlink:href="#SVGID_105_"  overflow="visible"/>
		</clipPath>
		<defs>
			<filter id="Adobe_OpacityMaskFilter_17_" filterUnits="userSpaceOnUse" x="1610.847" y="0" width="18.956" height="18.955">
				<feColorMatrix  type="matrix" values="1 0 0 0 0  0 1 0 0 0  0 0 1 0 0  0 0 0 1 0"/>
			</filter>
		</defs>
		<mask maskUnits="userSpaceOnUse" x="1610.847" y="0" width="18.956" height="18.955" id="SVGID_107_">
			<g filter="url(#Adobe_OpacityMaskFilter_17_)">
				
					<linearGradient id="SVGID_108_" gradientUnits="userSpaceOnUse" x1="0" y1="63.527" x2="1" y2="63.527" gradientTransform="matrix(-560.7681 0 0 -560.7681 1862.7875 35633.3945)">
					<stop  offset="0" style="stop-color:#000000"/>
					<stop  offset="1" style="stop-color:#262626"/>
				</linearGradient>
				<rect x="1610.847" y="0" clip-path="url(#SVGID_106_)" fill="url(#SVGID_108_)" width="18.956" height="18.955"/>
			</g>
		</mask>
		<g clip-path="url(#SVGID_106_)" mask="url(#SVGID_107_)">
			<g>
				<defs>
					<rect id="SVGID_109_" x="1610.847" y="0" width="18.956" height="18.955"/>
				</defs>
				<clipPath id="SVGID_110_">
					<use xlink:href="#SVGID_109_"  overflow="visible"/>
				</clipPath>
				<rect x="1610.847" y="0" clip-path="url(#SVGID_110_)" fill="#E6501E" width="18.956" height="18.955"/>
			</g>
		</g>
	</g>
	<g clip-path="url(#SVGID_2_)">
		<defs>
			<path id="SVGID_111_" d="M1385.061,7.694l10.022-3.608l-3.207,9.22L1385.061,7.694z M1382,7.163l10.602,8.733l4.99-14.347
				L1382,7.163z"/>
		</defs>
		<clipPath id="SVGID_112_">
			<use xlink:href="#SVGID_111_"  overflow="visible"/>
		</clipPath>
		<defs>
			<filter id="Adobe_OpacityMaskFilter_18_" filterUnits="userSpaceOnUse" x="1382" y="1.549" width="15.592" height="14.347">
				<feColorMatrix  type="matrix" values="1 0 0 0 0  0 1 0 0 0  0 0 1 0 0  0 0 0 1 0"/>
			</filter>
		</defs>
		<mask maskUnits="userSpaceOnUse" x="1382" y="1.549" width="15.592" height="14.347" id="SVGID_113_">
			<g filter="url(#Adobe_OpacityMaskFilter_18_)">
				
					<linearGradient id="SVGID_114_" gradientUnits="userSpaceOnUse" x1="0" y1="63.527" x2="1" y2="63.527" gradientTransform="matrix(-560.7681 0 0 -560.7681 1862.7875 35632.6406)">
					<stop  offset="0" style="stop-color:#000000"/>
					<stop  offset="1" style="stop-color:#262626"/>
				</linearGradient>
				<rect x="1382" y="1.549" clip-path="url(#SVGID_112_)" fill="url(#SVGID_114_)" width="15.592" height="14.347"/>
			</g>
		</mask>
		<g clip-path="url(#SVGID_112_)" mask="url(#SVGID_113_)">
			<g>
				<defs>
					<rect id="SVGID_115_" x="1382" y="1.549" width="15.592" height="14.347"/>
				</defs>
				<clipPath id="SVGID_116_">
					<use xlink:href="#SVGID_115_"  overflow="visible"/>
				</clipPath>
				<rect x="1382" y="1.549" clip-path="url(#SVGID_116_)" fill="#E6501E" width="15.592" height="14.347"/>
			</g>
		</g>
	</g>
	<g clip-path="url(#SVGID_2_)">
		<defs>
			
				<rect id="SVGID_117_" x="1523.52" y="-2.758" transform="matrix(-0.4547 -0.8906 0.8906 -0.4547 2214.1211 1362.9784)" width="1.537" height="12.946"/>
		</defs>
		<clipPath id="SVGID_118_">
			<use xlink:href="#SVGID_117_"  overflow="visible"/>
		</clipPath>
		<defs>
			<filter id="Adobe_OpacityMaskFilter_19_" filterUnits="userSpaceOnUse" x="1518.175" y="0.084" width="12.226" height="7.261">
				<feColorMatrix  type="matrix" values="1 0 0 0 0  0 1 0 0 0  0 0 1 0 0  0 0 0 1 0"/>
			</filter>
		</defs>
		<mask maskUnits="userSpaceOnUse" x="1518.175" y="0.084" width="12.226" height="7.261" id="SVGID_119_">
			<g filter="url(#Adobe_OpacityMaskFilter_19_)">
				
					<linearGradient id="SVGID_120_" gradientUnits="userSpaceOnUse" x1="0" y1="63.527" x2="1" y2="63.527" gradientTransform="matrix(-560.7681 0 0 -560.7681 1862.7875 35627.6328)">
					<stop  offset="0" style="stop-color:#000000"/>
					<stop  offset="1" style="stop-color:#262626"/>
				</linearGradient>
				<rect x="1518.175" y="0.084" clip-path="url(#SVGID_118_)" fill="url(#SVGID_120_)" width="12.226" height="7.261"/>
			</g>
		</mask>
		<g clip-path="url(#SVGID_118_)" mask="url(#SVGID_119_)">
			<g>
				<defs>
					<rect id="SVGID_121_" x="1518.175" y="0.084" width="12.226" height="7.261"/>
				</defs>
				<clipPath id="SVGID_122_">
					<use xlink:href="#SVGID_121_"  overflow="visible"/>
				</clipPath>
				<rect x="1518.175" y="0.084" clip-path="url(#SVGID_122_)" fill="#E6501E" width="12.226" height="7.261"/>
			</g>
		</g>
	</g>
	<g clip-path="url(#SVGID_2_)">
		<defs>
			<path id="SVGID_123_" d="M1461.955,35.605l3.182-5.509h6.362l3.182,5.509l-3.182,5.511h-6.362L1461.955,35.605z M1464.25,28.558
				l-4.068,7.047l4.068,7.048h8.136l4.068-7.048l-4.068-7.047H1464.25z"/>
		</defs>
		<clipPath id="SVGID_124_">
			<use xlink:href="#SVGID_123_"  overflow="visible"/>
		</clipPath>
		<defs>
			<filter id="Adobe_OpacityMaskFilter_20_" filterUnits="userSpaceOnUse" x="1460.182" y="28.558" width="16.272" height="14.095">
				<feColorMatrix  type="matrix" values="1 0 0 0 0  0 1 0 0 0  0 0 1 0 0  0 0 0 1 0"/>
			</filter>
		</defs>
		<mask maskUnits="userSpaceOnUse" x="1460.182" y="28.558" width="16.272" height="14.095" id="SVGID_125_">
			<g filter="url(#Adobe_OpacityMaskFilter_20_)">
				
					<linearGradient id="SVGID_126_" gradientUnits="userSpaceOnUse" x1="0" y1="63.527" x2="1" y2="63.527" gradientTransform="matrix(-560.7681 0 0 -560.7681 1862.7875 35659.5234)">
					<stop  offset="0" style="stop-color:#000000"/>
					<stop  offset="1" style="stop-color:#262626"/>
				</linearGradient>
				<rect x="1460.182" y="28.558" clip-path="url(#SVGID_124_)" fill="url(#SVGID_126_)" width="16.272" height="14.095"/>
			</g>
		</mask>
		<g clip-path="url(#SVGID_124_)" mask="url(#SVGID_125_)">
			<g>
				<defs>
					<rect id="SVGID_127_" x="1460.182" y="28.558" width="16.272" height="14.095"/>
				</defs>
				<clipPath id="SVGID_128_">
					<use xlink:href="#SVGID_127_"  overflow="visible"/>
				</clipPath>
				<rect x="1460.182" y="28.558" clip-path="url(#SVGID_128_)" fill="#E6501E" width="16.272" height="14.095"/>
			</g>
		</g>
	</g>
	<g clip-path="url(#SVGID_2_)">
		<defs>
			<path id="SVGID_129_" d="M1565.53,29.907c0-0.813,0.661-1.474,1.473-1.474c0.812,0,1.472,0.661,1.472,1.474
				c0,0.811-0.66,1.472-1.472,1.472C1566.191,31.379,1565.53,30.718,1565.53,29.907 M1563.993,29.907c0,1.659,1.35,3.009,3.01,3.009
				c1.659,0,3.009-1.35,3.009-3.009c0-1.66-1.35-3.01-3.009-3.01C1565.343,26.897,1563.993,28.247,1563.993,29.907"/>
		</defs>
		<clipPath id="SVGID_130_">
			<use xlink:href="#SVGID_129_"  overflow="visible"/>
		</clipPath>
		<defs>
			<filter id="Adobe_OpacityMaskFilter_21_" filterUnits="userSpaceOnUse" x="1563.993" y="26.897" width="6.019" height="6.019">
				<feColorMatrix  type="matrix" values="1 0 0 0 0  0 1 0 0 0  0 0 1 0 0  0 0 0 1 0"/>
			</filter>
		</defs>
		<mask maskUnits="userSpaceOnUse" x="1563.993" y="26.897" width="6.019" height="6.019" id="SVGID_131_">
			<g filter="url(#Adobe_OpacityMaskFilter_21_)">
				
					<linearGradient id="SVGID_132_" gradientUnits="userSpaceOnUse" x1="0" y1="63.527" x2="1" y2="63.527" gradientTransform="matrix(-560.7681 0 0 -560.7681 1862.7875 35653.8242)">
					<stop  offset="0" style="stop-color:#000000"/>
					<stop  offset="1" style="stop-color:#262626"/>
				</linearGradient>
				<rect x="1563.993" y="26.897" clip-path="url(#SVGID_130_)" fill="url(#SVGID_132_)" width="6.019" height="6.019"/>
			</g>
		</mask>
		<g clip-path="url(#SVGID_130_)" mask="url(#SVGID_131_)">
			<g>
				<defs>
					<rect id="SVGID_133_" x="1563.993" y="26.897" width="6.019" height="6.019"/>
				</defs>
				<clipPath id="SVGID_134_">
					<use xlink:href="#SVGID_133_"  overflow="visible"/>
				</clipPath>
				<rect x="1563.993" y="26.897" clip-path="url(#SVGID_134_)" fill="#E6501E" width="6.019" height="6.019"/>
			</g>
		</g>
	</g>
	<g clip-path="url(#SVGID_2_)">
		<defs>
			<path id="SVGID_135_" d="M1407.096,60.837c0-0.636,0.518-1.152,1.153-1.152s1.153,0.516,1.153,1.152
				c0,0.636-0.518,1.153-1.153,1.153S1407.096,61.473,1407.096,60.837 M1405.559,60.837c0,1.483,1.207,2.69,2.69,2.69
				s2.689-1.207,2.689-2.69c0-1.482-1.206-2.689-2.689-2.689S1405.559,59.355,1405.559,60.837"/>
		</defs>
		<clipPath id="SVGID_136_">
			<use xlink:href="#SVGID_135_"  overflow="visible"/>
		</clipPath>
		<defs>
			<filter id="Adobe_OpacityMaskFilter_22_" filterUnits="userSpaceOnUse" x="1405.559" y="58.148" width="5.379" height="5.379">
				<feColorMatrix  type="matrix" values="1 0 0 0 0  0 1 0 0 0  0 0 1 0 0  0 0 0 1 0"/>
			</filter>
		</defs>
		<mask maskUnits="userSpaceOnUse" x="1405.559" y="58.148" width="5.379" height="5.379" id="SVGID_137_">
			<g filter="url(#Adobe_OpacityMaskFilter_22_)">
				
					<linearGradient id="SVGID_138_" gradientUnits="userSpaceOnUse" x1="0" y1="63.527" x2="1" y2="63.527" gradientTransform="matrix(-560.7681 0 0 -560.7681 1862.7875 35684.7539)">
					<stop  offset="0" style="stop-color:#000000"/>
					<stop  offset="1" style="stop-color:#262626"/>
				</linearGradient>
				<rect x="1405.559" y="58.148" clip-path="url(#SVGID_136_)" fill="url(#SVGID_138_)" width="5.379" height="5.379"/>
			</g>
		</mask>
		<g clip-path="url(#SVGID_136_)" mask="url(#SVGID_137_)">
			<g>
				<defs>
					<rect id="SVGID_139_" x="1405.559" y="58.148" width="5.379" height="5.379"/>
				</defs>
				<clipPath id="SVGID_140_">
					<use xlink:href="#SVGID_139_"  overflow="visible"/>
				</clipPath>
				<rect x="1405.559" y="58.148" clip-path="url(#SVGID_140_)" fill="#E6501E" width="5.379" height="5.379"/>
			</g>
		</g>
	</g>
	<g clip-path="url(#SVGID_2_)">
		<defs>
			<path id="SVGID_141_" d="M1313.653,9.478c0-4.379,3.563-7.941,7.94-7.941c4.379,0,7.941,3.562,7.941,7.941
				c0,4.378-3.562,7.94-7.941,7.94C1317.216,17.418,1313.653,13.856,1313.653,9.478 M1321.593,0c-5.226,0-9.477,4.252-9.477,9.478
				s4.251,9.477,9.477,9.477c5.227,0,9.478-4.251,9.478-9.477S1326.82,0,1321.593,0z"/>
		</defs>
		<clipPath id="SVGID_142_">
			<use xlink:href="#SVGID_141_"  overflow="visible"/>
		</clipPath>
		<defs>
			<filter id="Adobe_OpacityMaskFilter_23_" filterUnits="userSpaceOnUse" x="1312.116" y="0" width="18.955" height="18.955">
				<feColorMatrix  type="matrix" values="1 0 0 0 0  0 1 0 0 0  0 0 1 0 0  0 0 0 1 0"/>
			</filter>
		</defs>
		<mask maskUnits="userSpaceOnUse" x="1312.116" y="0" width="18.955" height="18.955" id="SVGID_143_">
			<g filter="url(#Adobe_OpacityMaskFilter_23_)">
				
					<linearGradient id="SVGID_144_" gradientUnits="userSpaceOnUse" x1="0" y1="63.527" x2="1" y2="63.527" gradientTransform="matrix(-560.7681 0 0 -560.7681 1862.7875 35633.3945)">
					<stop  offset="0" style="stop-color:#000000"/>
					<stop  offset="1" style="stop-color:#262626"/>
				</linearGradient>
				<rect x="1312.116" y="0" clip-path="url(#SVGID_142_)" fill="url(#SVGID_144_)" width="18.955" height="18.955"/>
			</g>
		</mask>
		<g clip-path="url(#SVGID_142_)" mask="url(#SVGID_143_)">
			<g>
				<defs>
					<rect id="SVGID_145_" x="1312.116" y="0" width="18.955" height="18.955"/>
				</defs>
				<clipPath id="SVGID_146_">
					<use xlink:href="#SVGID_145_"  overflow="visible"/>
				</clipPath>
				<rect x="1312.116" y="0" clip-path="url(#SVGID_146_)" fill="#E6501E" width="18.955" height="18.955"/>
			</g>
		</g>
	</g>
</g>
</svg>
