<svg xmlns="http://www.w3.org/2000/svg" width="103.43" height="120.571" viewBox="0 0 103.43 120.571"><path fill="none" stroke="#E6501E" stroke-linecap="round" stroke-linejoin="round" stroke-miterlimit="10" d="M59.45 22.599c-1.488-3.401-4.874-5.782-8.823-5.782s-7.335 2.382-8.823 5.782h-4.668v12.528h26.983V22.599H59.45z"/><path fill="none" stroke="#666" stroke-linecap="round" stroke-linejoin="round" stroke-miterlimit="10" d="M83.392 49.618V36.779a9.36 9.36 0 0 0-9.361-9.361h-6.422m-33.963-.001h-6.422a9.36 9.36 0 0 0-9.361 9.361v62.914a9.36 9.36 0 0 0 9.361 9.361h46.807a9.36 9.36 0 0 0 9.361-9.361V75.498"/><path opacity=".08" fill="none" stroke="#231815" stroke-width="4" stroke-linecap="round" stroke-linejoin="round" stroke-miterlimit="10" d="M86.879 48.618V35.779m0 64.914V74.497"/><path fill="none" stroke="#32AF5A" stroke-linecap="round" stroke-linejoin="round" stroke-miterlimit="10" d="M42.263 50.851v4.995H29.807V43.391h12.456"/><path fill="none" stroke="#32AF5A" stroke-miterlimit="10" d="M45.516 44.04l-7.613 7.612-3.653-3.654m15.339 1.621h22.103"/><path fill="none" stroke="#32AF5A" stroke-linecap="round" stroke-linejoin="round" stroke-miterlimit="10" d="M42.263 70.094v4.995H29.807V62.634h12.456"/><path fill="none" stroke="#32AF5A" stroke-linecap="round" stroke-linejoin="round" stroke-miterlimit="10" d="M42.263 70.094v4.995H29.807V62.634h12.456"/><path fill="none" stroke="#32AF5A" stroke-miterlimit="10" d="M45.516 63.283l-7.613 7.612-3.653-3.654m15.339 1.621H60.64"/><path opacity=".1" fill="none" stroke="#32AF5A" stroke-width="3" stroke-linecap="round" stroke-linejoin="round" stroke-miterlimit="10" d="M31.592 54.062v-8.886l8.886.047m-8.886 28.082v-8.886l8.886.047"/><path opacity=".1" fill="none" stroke="#231815" stroke-width="4" stroke-linecap="round" stroke-linejoin="round" stroke-miterlimit="10" d="M31.592 92.721v-8.886l8.886.047"/><path fill="none" stroke="#666" stroke-linecap="round" stroke-linejoin="round" stroke-miterlimit="10" d="M42.263 82.117v12.389H29.807V82.05l12.456.067"/><path opacity=".2" fill="none" stroke="#E6501E" stroke-width="4" stroke-linecap="round" stroke-linejoin="round" stroke-miterlimit="10" d="M19.933 118.571h61.389"/><g fill="none" stroke-linecap="round" stroke-linejoin="round" stroke-miterlimit="10"><path d="M78.213 60.968l7.512 7.513L63.31 90.895l-7.513-7.512zM51.179 95.515l2.511-10.024 7.512 7.513zM88.006 66.2l-7.512-7.512 4.683-4.683a4 4 0 0 1 5.657 0l1.855 1.855a4 4 0 0 1 0 5.657L88.006 66.2z" stroke="#999"/><path opacity=".1" stroke="#231815" stroke-width="4" d="M90.348 59.175l-2.1 2.099m-6.769 6.769L62.905 86.617m-5.986 5.277l-2.958.839"/></g><circle fill="none" stroke="#E6501E" stroke-linecap="round" stroke-linejoin="round" stroke-miterlimit="10" cx="50.627" cy="25.753" r="2.851"/><circle opacity=".4" fill="none" stroke="#3C96E6" stroke-linecap="round" stroke-linejoin="round" stroke-miterlimit="10" cx="72.121" cy="2" r="1.5"/><circle opacity=".4" fill="none" stroke="#3C96E6" stroke-linecap="round" stroke-linejoin="round" stroke-miterlimit="10" cx="3.114" cy="66.006" r="2.614"/><path opacity=".2" d="M18.648 3.326v2.608m0 6.004v2.608m-3.966-9.577l1.844 1.844m4.245 4.246l1.844 1.844m-9.577-3.967h2.609m6.003 0h2.609m-9.577 3.967l1.844-1.844m4.245-4.246l1.844-1.844m76.412 29.422v1.815m0 4.177v1.815m-2.76-6.664l1.283 1.284m2.954 2.954l1.283 1.283m-6.664-2.76h1.815m4.178 0h1.814m-6.663 2.76l1.283-1.283m2.954-2.954l1.283-1.284" fill="none" stroke="#3C96E6" stroke-linecap="round" stroke-linejoin="round" stroke-miterlimit="10"/></svg>