<svg xmlns="http://www.w3.org/2000/svg" width="102.725" height="102.6" viewBox="516.45 69.3 102.725 102.6"><path fill="#F9E5CF" d="M616.15 154.2c3.3 3.3 3.3 8.6 0 11.9l-3 3a8.39 8.39 0 0 1-11.9 0l-20.3-20.5a8.39 8.39 0 0 1 0-11.9l3-3c3.3-3.3 8.6-3.3 11.9 0l20.3 20.5z"/><path fill="#666" d="M607.25 171.9c-2.3 0-4.6-.9-6.3-2.6l-20.4-20.4c-3.5-3.5-3.5-9.1 0-12.6l3-3c3.5-3.5 9.1-3.5 12.6 0l20.4 20.4c3.5 3.5 3.5 9.1 0 12.6l-3 3c-1.7 1.8-4 2.6-6.3 2.6zm-17.4-40.1c-2.1 0-4.1.8-5.6 2.3l-3 3c-1.5 1.5-2.3 3.5-2.3 5.6s.8 4.1 2.3 5.6l20.4 20.4c1.5 1.5 3.5 2.3 5.6 2.3s4.1-.8 5.6-2.3l3-3c1.5-1.5 2.3-3.5 2.3-5.6s-.8-4.1-2.3-5.6l-20.4-20.4c-1.5-1.5-3.5-2.3-5.6-2.3z"/><path fill="#FCF3EB" d="M614.85 154c3.3 3.3 4.4 8.1 0 11.9l-31.8-31.8c3.3-3.3 8.6-3.3 11.9 0l19.9 19.9z"/><path fill="#F9E5CF" d="M598.15 136.2l-14.8 14.8-2.4-2.4a8.39 8.39 0 0 1 0-11.9l3-3c3.3-3.3 8.6-3.3 11.9 0l2.3 2.5z"/><path fill="#666" d="M583.35 151.7l-2.7-2.7c-3.5-3.5-3.5-9.1 0-12.6l3-3c3.5-3.5 9.1-3.5 12.6 0l2.7 2.7-15.6 15.6zm6.5-19.9c-2 0-4 .8-5.6 2.3l-3 3c-3.1 3.1-3.1 8.1 0 11.2l2 2 14.1-14.1-2-2c-1.5-1.6-3.5-2.4-5.5-2.4z"/><path fill="#F2F2F2" d="M590.208 131.738l-11.243 11.243-9.263-9.263 11.243-11.243z"/><path fill="#666" d="M578.95 143.8l-10-10 11.9-11.9 10 10-11.9 11.9zm-8.6-10l8.6 8.6 10.5-10.5-8.6-8.6-10.5 10.5z"/><path fill="#F2F2F2" d="M552.75 69.7c-19.8 0-35.8 16-35.8 35.8s16 35.8 35.8 35.8 35.8-16 35.8-35.8-16.1-35.8-35.8-35.8zm23.5 35.8c0 13-10.5 23.5-23.5 23.5s-23.5-10.5-23.5-23.5 10.5-23.5 23.5-23.5 23.5 10.6 23.5 23.5z"/><path fill="#666" d="M552.75 141.9c-20 0-36.3-16.3-36.3-36.3s16.3-36.3 36.3-36.3 36.3 16.3 36.3 36.3-16.3 36.3-36.3 36.3zm0-71.7c-19.5 0-35.3 15.8-35.3 35.3s15.8 35.3 35.3 35.3 35.3-15.8 35.3-35.3-15.9-35.3-35.3-35.3zm0 59.3c-13.2 0-24-10.8-24-24s10.8-24 24-24 24 10.8 24 24c0 13.3-10.8 24-24 24zm0-46.9c-12.7 0-23 10.3-23 23s10.3 23 23 23 23-10.3 23-23-10.4-23-23-23z"/><g opacity=".05"><circle fill="#EB3232" cx="552.75" cy="105.5" r="23.5"/><path fill="#666" d="M552.75 129.5c-13.2 0-24-10.8-24-24s10.8-24 24-24 24 10.8 24 24c0 13.3-10.8 24-24 24zm0-46.9c-12.7 0-23 10.3-23 23s10.3 23 23 23 23-10.3 23-23-10.4-23-23-23z"/></g></svg>