<?xml version="1.0" encoding="utf-8"?>
<!-- Generator: Adobe Illustrator 17.0.0, SVG Export Plug-In . SVG Version: 6.00 Build 0)  -->
<!DOCTYPE svg PUBLIC "-//W3C//DTD SVG 1.1//EN" "http://www.w3.org/Graphics/SVG/1.1/DTD/svg11.dtd">
<svg version="1.1" id="图层_1" xmlns="http://www.w3.org/2000/svg" xmlns:xlink="http://www.w3.org/1999/xlink" x="0px" y="0px"
	 width="102.725px" height="102.6px" viewBox="516.45 69.3 102.725 102.6" enable-background="new 516.45 69.3 102.725 102.6"
	 xml:space="preserve">
<g>
	<g>
		<path fill="#F9E5CF" d="M616.15,154.2c3.3,3.3,3.3,8.6,0,11.9l-3,3c-3.3,3.3-8.6,3.3-11.9,0l-20.3-20.5c-3.3-3.3-3.3-8.6,0-11.9
			l3-3c3.3-3.3,8.6-3.3,11.9,0L616.15,154.2z"/>
		<path fill="#666666" d="M607.25,171.9c-2.3,0-4.6-0.9-6.3-2.6l-20.4-20.4c-3.5-3.5-3.5-9.1,0-12.6l3-3c3.5-3.5,9.1-3.5,12.6,0
			l20.4,20.4c3.5,3.5,3.5,9.1,0,12.6l-3,3C611.85,171.1,609.55,171.9,607.25,171.9z M589.85,131.8c-2.1,0-4.1,0.8-5.6,2.3l-3,3
			c-1.5,1.5-2.3,3.5-2.3,5.6s0.8,4.1,2.3,5.6l20.4,20.4c1.5,1.5,3.5,2.3,5.6,2.3s4.1-0.8,5.6-2.3l3-3c1.5-1.5,2.3-3.5,2.3-5.6
			s-0.8-4.1-2.3-5.6l-20.4-20.4C593.95,132.6,591.95,131.8,589.85,131.8z"/>
	</g>
	<g>
		<path fill="#FCF3EB" d="M614.85,154c3.3,3.3,4.4,8.1,0,11.9l-31.8-31.8c3.3-3.3,8.6-3.3,11.9,0L614.85,154z"/>
	</g>
	<g>
		<path fill="#F9E5CF" d="M598.15,136.2l-14.8,14.8l-2.4-2.4c-3.3-3.3-3.3-8.6,0-11.9l3-3c3.3-3.3,8.6-3.3,11.9,0L598.15,136.2z"/>
		<path fill="#666666" d="M583.35,151.7l-2.7-2.7c-3.5-3.5-3.5-9.1,0-12.6l3-3c3.5-3.5,9.1-3.5,12.6,0l2.7,2.7L583.35,151.7z
			 M589.85,131.8c-2,0-4,0.8-5.6,2.3l-3,3c-3.1,3.1-3.1,8.1,0,11.2l2,2l14.1-14.1l-2-2C593.85,132.6,591.85,131.8,589.85,131.8z"/>
	</g>
	<g>
		
			<rect x="572" y="126.181" transform="matrix(-0.7071 0.7071 -0.7071 -0.7071 1083.8921 -183.5009)" fill="#F2F2F2" width="15.9" height="13.1"/>
		<path fill="#666666" d="M578.95,143.8l-10-10l11.9-11.9l10,10L578.95,143.8z M570.35,133.8l8.6,8.6l10.5-10.5l-8.6-8.6
			L570.35,133.8z"/>
	</g>
	<g>
		<g>
			<path fill="#F2F2F2" d="M552.75,69.7c-19.8,0-35.8,16-35.8,35.8s16,35.8,35.8,35.8s35.8-16,35.8-35.8S572.45,69.7,552.75,69.7z
				 M576.25,105.5c0,13-10.5,23.5-23.5,23.5s-23.5-10.5-23.5-23.5s10.5-23.5,23.5-23.5S576.25,92.6,576.25,105.5z"/>
			<path fill="#666666" d="M552.75,141.9c-20,0-36.3-16.3-36.3-36.3s16.3-36.3,36.3-36.3s36.3,16.3,36.3,36.3
				S572.75,141.9,552.75,141.9z M552.75,70.2c-19.5,0-35.3,15.8-35.3,35.3s15.8,35.3,35.3,35.3s35.3-15.8,35.3-35.3
				S572.15,70.2,552.75,70.2z M552.75,129.5c-13.2,0-24-10.8-24-24s10.8-24,24-24s24,10.8,24,24l0,0
				C576.75,118.8,565.95,129.5,552.75,129.5z M552.75,82.6c-12.7,0-23,10.3-23,23s10.3,23,23,23s23-10.3,23-23
				S565.35,82.6,552.75,82.6z"/>
		</g>
		<g opacity="0.05">
			<circle fill="#EB3232" cx="552.75" cy="105.5" r="23.5"/>
			<path fill="#666666" d="M552.75,129.5c-13.2,0-24-10.8-24-24s10.8-24,24-24s24,10.8,24,24
				C576.75,118.8,565.95,129.5,552.75,129.5z M552.75,82.6c-12.7,0-23,10.3-23,23s10.3,23,23,23s23-10.3,23-23
				S565.35,82.6,552.75,82.6z"/>
		</g>
	</g>
</g>
</svg>
