<?xml version="1.0" encoding="utf-8"?>
<!-- Generator: Adobe Illustrator 17.0.0, SVG Export Plug-In . SVG Version: 6.00 Build 0)  -->
<!DOCTYPE svg PUBLIC "-//W3C//DTD SVG 1.1//EN" "http://www.w3.org/Graphics/SVG/1.1/DTD/svg11.dtd">
<svg version="1.1" id="图层_1" xmlns="http://www.w3.org/2000/svg" xmlns:xlink="http://www.w3.org/1999/xlink" x="0px" y="0px"
	 width="16px" height="16px" viewBox="200.38 -94.272 16 16" enable-background="new 200.38 -94.272 16 16" xml:space="preserve">
<path fill="#999999" d="M208.38-94.272c-4.42,0-8,3.671-8,8.202c0,3.63,2.29,6.695,5.47,7.782c0.4,0.072,0.55-0.174,0.55-0.39
	c0-0.195-0.01-0.841-0.01-1.528c-2.01,0.379-2.53-0.502-2.69-0.964c-0.09-0.236-0.48-0.964-0.82-1.159
	c-0.28-0.154-0.68-0.533-0.01-0.543c0.63-0.01,1.08,0.595,1.23,0.841c0.72,1.241,1.87,0.892,2.33,0.677
	c0.07-0.533,0.28-0.892,0.51-1.097c-1.78-0.205-3.64-0.913-3.64-4.05c0-0.892,0.31-1.63,0.82-2.204
	c-0.08-0.205-0.36-1.046,0.08-2.174c0,0,0.67-0.215,2.2,0.841c0.64-0.185,1.32-0.277,2-0.277s1.36,0.092,2,0.277
	c1.53-1.066,2.2-0.841,2.2-0.841c0.44,1.128,0.16,1.969,0.08,2.174c0.51,0.574,0.82,1.302,0.82,2.204c0,3.148-1.87,3.845-3.65,4.05
	c0.29,0.256,0.54,0.748,0.54,1.517c0,1.097-0.01,1.979-0.01,2.256c0,0.215,0.15,0.472,0.55,0.39c3.256-1.127,5.449-4.258,5.45-7.782
	C216.38-90.601,212.8-94.272,208.38-94.272z"/>
</svg>
