<svg xmlns="http://www.w3.org/2000/svg" width="16" height="16" viewBox="200.38 -94.272 16 16"><path fill="#999" d="M208.38-94.272c-4.42 0-8 3.671-8 8.202 0 3.63 2.29 6.695 5.47 7.782.4.072.55-.174.55-.39 0-.195-.01-.841-.01-1.528-2.01.379-2.53-.502-2.69-.964-.09-.236-.48-.964-.82-1.159-.28-.154-.68-.533-.01-.543.63-.01 1.08.595 1.23.841.72 1.241 1.87.892 2.33.677.07-.533.28-.892.51-1.097-1.78-.205-3.64-.913-3.64-4.05 0-.892.31-1.63.82-2.204-.08-.205-.36-1.046.08-2.174 0 0 .67-.215 2.2.841.64-.185 1.32-.277 2-.277s1.36.092 2 .277c1.53-1.066 2.2-.841 2.2-.841.44 1.128.16 1.969.08 2.174.51.574.82 1.302.82 2.204 0 3.148-1.87 3.845-3.65 4.05.29.256.54.748.54 1.517 0 1.097-.01 1.979-.01 2.256 0 .215.15.472.55.39 3.256-1.127 5.449-4.258 5.45-7.782 0-4.531-3.58-8.202-8-8.202z"/></svg>