<?xml version="1.0" encoding="utf-8"?>
<!-- Generator: Adobe Illustrator 17.0.0, SVG Export Plug-In . SVG Version: 6.00 Build 0)  -->
<!DOCTYPE svg PUBLIC "-//W3C//DTD SVG 1.1//EN" "http://www.w3.org/Graphics/SVG/1.1/DTD/svg11.dtd">
<svg version="1.1" id="图层_1" xmlns="http://www.w3.org/2000/svg" xmlns:xlink="http://www.w3.org/1999/xlink" x="0px" y="0px"
	 width="50.664px" height="53.496px" viewBox="0 0 50.664 53.496" enable-background="new 0 0 50.664 53.496" xml:space="preserve">
<g>
	<g>
		
			<line fill="none" stroke="#000000" stroke-width="0.7" stroke-linecap="round" stroke-linejoin="round" stroke-miterlimit="10" x1="6.879" y1="7.977" x2="9.886" y2="10.805"/>
		
			<line fill="none" stroke="#000000" stroke-width="0.7" stroke-linecap="round" stroke-linejoin="round" stroke-miterlimit="10" x1="43.785" y1="7.977" x2="40.778" y2="10.805"/>
		
			<line fill="none" stroke="#000000" stroke-width="0.7" stroke-linecap="round" stroke-linejoin="round" stroke-miterlimit="10" x1="46.536" y1="22.6" x2="50.664" y2="22.6"/>
		
			<line fill="none" stroke="#000000" stroke-width="0.7" stroke-linecap="round" stroke-linejoin="round" stroke-miterlimit="10" x1="0" y1="22.6" x2="4.128" y2="22.6"/>
		
			<line fill="none" stroke="#000000" stroke-width="0.7" stroke-linecap="round" stroke-linejoin="round" stroke-miterlimit="10" x1="25.332" y1="4.128" x2="25.332" y2="0"/>
	</g>
	
		<line fill="none" stroke="#000000" stroke-width="0.7" stroke-linecap="round" stroke-linejoin="round" stroke-miterlimit="10" x1="20.314" y1="48.233" x2="30.349" y2="48.233"/>
	
		<line fill="none" stroke="#000000" stroke-width="0.7" stroke-linecap="round" stroke-linejoin="round" stroke-miterlimit="10" x1="23.39" y1="53.496" x2="27.274" y2="53.496"/>
	<path fill="none" stroke="#000000" stroke-width="0.7" stroke-linecap="round" stroke-linejoin="round" stroke-miterlimit="10" d="
		M39.368,25.315c0-7.752-6.284-14.036-14.036-14.036c-7.752,0-14.037,6.284-14.037,14.036c0,6.185,4.005,11.424,9.559,13.294v4.313
		h8.955V38.61C35.363,36.739,39.368,31.5,39.368,25.315z"/>
</g>
</svg>
