<svg xmlns="http://www.w3.org/2000/svg" width="36.106" height="36" viewBox="0 0 36.106 36"><path fill="#E6501E" d="M18.708 33.268c.414-.754 1.153-1.522 1.183-3.68s-1.625-3.636-1.743-3.695c-.118-.06-1.345-.99-3.592-.916s-3.474.28-4.183.37c-.71.09-2.188.28-2.986.28s-1.936-.25-2.44-.502c-.502-.25-1.7-1.12-2.2-2.082S2.02 21 2.02 21l6.356-2.854s.754-.384 1.064-.77c.31-.383.473-.753.473-.753s.03-1.153.325-1.907c.296-.754.798-1.094.798-1.094l3.09-2.69s-1.474-1.59-1.745-2.927c-.602-2.975-.326-5.655-.326-5.655s1.294 2.865 1.596 3.387c.466.806 1.186 1.574 1.186 1.574s.017-.743.517-1.965c.19-.463 1.293-2.266 1.293-2.266s.433 1.45 1.053 2.205c.455.552.76.688 1.554 1.052.932.427 1.417 1.21 1.92 2.077.097.167.28.517.28.517s2.502.315 5.178 1.38c2.676 1.064 5.262 2.986 5.262 2.986l-2.87.562s2.72.62 4.732 2.29c1.686 1.4 2.332 2.155 2.347 2.172l.003-.27C36.106 8.083 28.023 0 18.053 0S0 8.083 0 18.053C0 27.363 7.046 35.025 16.096 36c.02-.02 2.2-1.982 2.612-2.732z"/></svg>