<?xml version="1.0" encoding="utf-8"?>
<!-- Generator: Adobe Illustrator 20.1.0, SVG Export Plug-In . SVG Version: 6.00 Build 0)  -->
<svg version="1.1" id="图层_1" xmlns="http://www.w3.org/2000/svg" xmlns:xlink="http://www.w3.org/1999/xlink" x="0px" y="0px"
	 width="34px" height="15px" viewBox="0 0 34 15" enable-background="new 0 0 34 15" xml:space="preserve">
<g>
	<g>
		<path fill-rule="evenodd" clip-rule="evenodd" fill="#E6501E" d="M31.7,0H2.3C1,0,0,1,0,2.3v10.5C0,14,1,15,2.3,15h29.5
			c1.3,0,2.3-1,2.3-2.2V2.3C34,1,33,0,31.7,0L31.7,0z"/>
	</g>
	<g>
		<polygon fill-rule="evenodd" clip-rule="evenodd" fill="#FFFDFD" points="10.9,11.6 8.9,11.6 5.7,5.9 5.7,11.6 3.8,11.6 3.8,3.4 
			6.4,3.4 9,8.1 9,3.4 10.9,3.4 10.9,11.6 		"/>
		<polygon fill-rule="evenodd" clip-rule="evenodd" fill="#FFFDFD" points="18.1,5 14.6,5 14.6,6.4 17.9,6.4 17.9,8 14.6,8 14.6,10 
			18.1,10 18.1,11.6 12.6,11.6 12.6,3.4 18.1,3.4 18.1,5 18.1,5 		"/>
		<polygon fill-rule="evenodd" clip-rule="evenodd" fill="#FFFDFD" points="28.1,11.6 25.8,11.6 24.5,6.5 23.2,11.6 20.9,11.6 
			18.8,3.4 21,3.4 22.1,8.9 23.5,3.4 25.6,3.4 26.9,8.9 28.1,3.4 30.2,3.4 28.1,11.6 		"/>
	</g>
</g>
</svg>
