<svg xmlns="http://www.w3.org/2000/svg" width="34" height="15" viewBox="0 0 34 15"><path fill-rule="evenodd" clip-rule="evenodd" fill="#E6501E" d="M31.7 0H2.3C1 0 0 1 0 2.3v10.5C0 14 1 15 2.3 15h29.5c1.3 0 2.3-1 2.3-2.2V2.3C34 1 33 0 31.7 0z"/><path d="M10.9 11.6h-2L5.7 5.9v5.7H3.8V3.4h2.6L9 8.1V3.4h1.9v8.2zM18.1 5h-3.5v1.4h3.3V8h-3.3v2h3.5v1.6h-5.5V3.4h5.5V5zm10 6.6h-2.3l-1.3-5.1-1.3 5.1h-2.3l-2.1-8.2H21l1.1 5.5 1.4-5.5h2.1l1.3 5.5 1.2-5.5h2.1l-2.1 8.2z" fill-rule="evenodd" clip-rule="evenodd" fill="#FFFDFD"/></svg>