<svg id="图层_1" xmlns="http://www.w3.org/2000/svg" width="35.85" height="8.032" viewBox="0 0 35.85 8.032"><style>.st0{fill:#418dcc}</style><path class="st0" d="M.977 5.078v2.827H0V.342h2.148c.817 0 1.45.197 1.902.59s.677.958.677 1.69c0 .742-.264 1.344-.79 1.804s-1.188.678-1.98.652h-.98zm0-3.877v3.02h.903c.596 0 1.048-.135 1.357-.404S3.7 3.163 3.7 2.66c0-.972-.575-1.46-1.728-1.46H.977zm7.915 2.251c-.16-.114-.38-.17-.66-.17-.37 0-.676.172-.917.52s-.36.802-.36 1.37v2.733h-.96v-5.4h.958v1.1h.02c.273-.795.746-1.192 1.416-1.192.217 0 .385.024.502.073v.966zm5.18 1.998h-3.78c.017.575.175 1.02.475 1.334s.718.47 1.255.47c.605 0 1.16-.193 1.665-.58v.854c-.475.335-1.105.503-1.89.503-.78 0-1.39-.247-1.83-.74s-.655-1.182-.655-2.06c0-.828.24-1.51.72-2.047s1.077-.806 1.79-.806c.707 0 1.258.227 1.655.68s.596 1.09.596 1.908v.484zm-.957-.767c-.003-.488-.12-.866-.347-1.133s-.548-.4-.962-.4c-.38 0-.71.142-.99.425s-.452.653-.524 1.108h2.823zm6.582-2.178l-2.14 5.4h-.966l-2.03-5.4h1.045l1.318 3.857c.107.31.17.568.19.776h.024c.033-.273.09-.526.17-.757l1.383-3.876h1.007zM20.48.6c0-.168.057-.31.172-.426S20.91 0 21.08 0c.17 0 .317.057.436.17s.178.258.178.43c0 .17-.06.31-.178.423s-.265.168-.437.168-.317-.055-.43-.167S20.48.77 20.48.6zm.11 7.305v-5.4h.958v5.4h-.957zm7.066-2.455h-3.78c.017.575.175 1.02.475 1.334s.72.47 1.256.47c.605 0 1.16-.193 1.665-.58v.854c-.474.335-1.104.503-1.89.503-.78 0-1.39-.247-1.828-.74s-.657-1.183-.657-2.062c0-.827.24-1.51.72-2.046s1.077-.806 1.79-.806c.707 0 1.258.227 1.655.68s.596 1.09.596 1.908v.485zm-.957-.767c-.004-.488-.12-.866-.348-1.133s-.548-.4-.962-.4c-.38 0-.71.142-.99.425s-.452.653-.524 1.108H26.7zm9.151-2.178l-1.61 5.4h-.997l-1.074-3.79a2.619 2.619 0 0 1-.09-.517h-.02c-.01.137-.046.306-.11.508l-1.163 3.8h-.967l-1.62-5.4h.995l1.08 4.003c.032.12.056.284.072.492h.04a2.23 2.23 0 0 1 .092-.508l1.16-3.99h.885l1.133 4.01c.033.117.06.283.078.498h.044c.006-.143.036-.31.088-.498l1.055-4.01h.927z"/></svg>