<svg xmlns="http://www.w3.org/2000/svg" width="22.389" height="22.4" viewBox="0 0 22.389 22.4"><g fill="none" stroke="#231815" stroke-width=".4" stroke-linejoin="round" stroke-miterlimit="10"><path d="M15.844 15.279l5.783-5.783a1.92 1.92 0 0 0-2.714-2.714l-5.783 5.783-.671 3.385 3.385-.671zm-2.046.404a1.932 1.932 0 0 0-1.061-1.068"/><path d="M15.867 15.258a3.173 3.173 0 0 0-.903-1.814c-.53-.53-1.2-.834-1.892-.912M21.526 9.6a3.173 3.173 0 0 0-.903-1.814c-.53-.53-1.2-.834-1.892-.912M6.12 4.321h4.92m1.975 3.98c0 2.363-1.985 4.278-4.435 4.278s-4.435-1.916-4.435-4.278V4.478C4.146 2.116 6.131.2 8.58.2s4.435 1.916 4.435 4.278v3.823zm-7.272 3.304C2.682 11.605.2 14 .2 16.953V22.2h16.761v-5.247"/></g></svg>