<svg xmlns="http://www.w3.org/2000/svg" width="102.711" height="102.711" viewBox="0 0 102.711 102.711"><path fill="#F9E5CF" stroke="#666" stroke-miterlimit="10" d="M99.753 84.918a8.392 8.392 0 0 1 0 11.868l-2.967 2.967a8.392 8.392 0 0 1-11.868 0L64.544 79.379a8.392 8.392 0 0 1 0-11.868l2.967-2.967a8.392 8.392 0 0 1 11.868 0l20.374 20.374z"/><path fill="#FCF3EB" d="M98.458 84.8c3.277 3.277 4.358 8.144 0 11.868L66.687 64.897a8.392 8.392 0 0 1 11.868 0L98.458 84.8z"/><path fill="#F9E5CF" stroke="#666" stroke-miterlimit="10" d="M81.753 66.917L66.917 81.753l-2.374-2.374a8.392 8.392 0 0 1 0-11.868l2.967-2.967a8.392 8.392 0 0 1 11.868 0l2.375 2.373z"/><path fill="#F2F2F2" stroke="#666" stroke-miterlimit="10" d="M53.292 64.52l11.227-11.227 9.297 9.297L62.59 73.817z"/><g stroke="#666" stroke-miterlimit="10"><path fill="#F2F2F2" d="M36.307.5C16.531.5.5 16.531.5 36.307c0 19.775 16.031 35.807 35.807 35.807s35.807-16.031 35.807-35.807S56.082.5 36.307.5zm23.498 35.807c0 12.978-10.52 23.498-23.498 23.498-12.978 0-23.498-10.52-23.498-23.498s10.52-23.498 23.498-23.498 23.498 10.52 23.498 23.498z"/><circle opacity=".05" fill="#00A0E9" cx="36.307" cy="36.307" r="23.498"/></g></svg>