<?xml version="1.0" encoding="utf-8"?>
<!-- Generator: Adobe Illustrator 17.0.0, SVG Export Plug-In . SVG Version: 6.00 Build 0)  -->
<!DOCTYPE svg PUBLIC "-//W3C//DTD SVG 1.1//EN" "http://www.w3.org/Graphics/SVG/1.1/DTD/svg11.dtd">
<svg version="1.1" id="图层_1" xmlns="http://www.w3.org/2000/svg" xmlns:xlink="http://www.w3.org/1999/xlink" x="0px" y="0px"
	 width="14.141px" height="14.141px" viewBox="0 0 14.141 14.141" enable-background="new 0 0 14.141 14.141" xml:space="preserve">
<g>
	<g>
		<path fill="#818181" d="M5.556,0.4c1.377,0,2.672,0.536,3.646,1.51c2.01,2.01,2.01,5.281,0,7.292
			c-0.974,0.974-2.269,1.51-3.646,1.51s-2.672-0.536-3.646-1.51c-2.01-2.01-2.01-5.281,0-7.292C2.884,0.936,4.179,0.4,5.556,0.4
			 M5.556,0C4.134,0,2.712,0.542,1.627,1.627c-2.17,2.17-2.17,5.688,0,7.858c1.085,1.085,2.507,1.627,3.929,1.627
			S8.4,10.57,9.485,9.485c2.17-2.17,2.17-5.688,0-7.858C8.4,0.542,6.978,0,5.556,0L5.556,0z"/>
	</g>
	
		<line fill="none" stroke="#818181" stroke-width="0.4" stroke-linejoin="round" stroke-miterlimit="10" x1="9.408" y1="9.408" x2="14" y2="14"/>
</g>
</svg>
