<?xml version="1.0" encoding="utf-8"?>
<!-- Generator: Adobe Illustrator 20.1.0, SVG Export Plug-In . SVG Version: 6.00 Build 0)  -->
<svg version="1.1" id="图层_1" xmlns="http://www.w3.org/2000/svg" xmlns:xlink="http://www.w3.org/1999/xlink" x="0px" y="0px"
	 width="14.4px" height="14.4px" viewBox="0 0 14.4 14.4" enable-background="new 0 0 14.4 14.4" xml:space="preserve">
<g>
	<g>
		<path fill="#666666" d="M5.8,1c1.3,0,2.5,0.5,3.4,1.4c1.9,1.9,1.9,5,0,6.9c-0.9,0.9-2.1,1.4-3.4,1.4c-1.3,0-2.5-0.5-3.4-1.4
			c-1.9-1.9-1.9-5,0-6.9C3.3,1.5,4.6,1,5.8,1 M5.8,0c-1.5,0-3,0.6-4.1,1.7c-2.3,2.3-2.3,6,0,8.3c1.1,1.1,2.6,1.7,4.1,1.7
			s3-0.6,4.1-1.7c2.3-2.3,2.3-6,0-8.3C8.8,0.6,7.3,0,5.8,0L5.8,0z"/>
	</g>
	<g>
		
			<rect x="11.2" y="8.5" transform="matrix(0.7071 -0.7071 0.7071 0.7071 -4.8547 11.7201)" fill="#666666" width="1" height="6.4"/>
	</g>
</g>
</svg>
