<svg xmlns="http://www.w3.org/2000/svg" width="22.855" height="22.4" viewBox="0 0 22.855 22.4"><path fill="none" stroke="#231815" stroke-width=".4" stroke-linejoin="round" stroke-miterlimit="10" d="M14.287 21.01c0 .657-.534 1.19-1.193 1.19H9.765a1.192 1.192 0 0 1-1.193-1.19c0-.657.534-1.19 1.193-1.19h3.329c.659 0 1.193.533 1.193 1.19zm3.947-4.124s-.758 4.124-3.946 4.124M2.711 8.868C2.711 4.081 6.613.2 11.427.2s8.716 3.881 8.716 8.668"/><path fill="#231815" d="M4.368 8.845l1.366 7.733-3.012.853c-1.071-.828-1.91-2.233-2.209-3.922-.298-1.689.009-3.296.731-4.439l3.124-.225m0-.4l-.029.001-3.123.226a.401.401 0 0 0-.31.185c-.805 1.274-1.092 2.996-.787 4.722.305 1.726 1.165 3.246 2.358 4.168a.4.4 0 0 0 .354.069l3.012-.853a.399.399 0 0 0 .285-.454L4.762 8.776a.4.4 0 0 0-.394-.331z"/><path fill="none" stroke="#231815" stroke-width=".4" stroke-linejoin="round" stroke-miterlimit="10" d="M3.21 8.929l1.411 7.957"/><path fill="#231815" d="M18.487 8.845l3.124.225c.722 1.143 1.03 2.75.731 4.439-.298 1.689-1.138 3.094-2.209 3.922l-3.012-.853 1.366-7.733m-.001-.4a.4.4 0 0 0-.394.33l-1.366 7.733a.398.398 0 0 0 .285.454l3.012.853a.4.4 0 0 0 .354-.069c1.193-.923 2.053-2.442 2.358-4.168.305-1.726.018-3.448-.787-4.722a.401.401 0 0 0-.309-.185l-3.124-.225-.029-.001z"/><path fill="none" stroke="#231815" stroke-width=".4" stroke-linejoin="round" stroke-miterlimit="10" d="M19.644 8.929l-1.41 7.957m-.466-9.457c-1.076-2.446-3.509-4.153-6.34-4.153s-5.265 1.708-6.34 4.153"/></svg>