<?xml version="1.0" encoding="utf-8"?>
<!-- Generator: Adobe Illustrator 17.0.0, SVG Export Plug-In . SVG Version: 6.00 Build 0)  -->
<!DOCTYPE svg PUBLIC "-//W3C//DTD SVG 1.1//EN" "http://www.w3.org/Graphics/SVG/1.1/DTD/svg11.dtd">
<svg version="1.1" id="隔离模式" xmlns="http://www.w3.org/2000/svg" xmlns:xlink="http://www.w3.org/1999/xlink" x="0px"
	 y="0px" width="89.33px" height="89.068px" viewBox="0 0 89.33 89.068" enable-background="new 0 0 89.33 89.068"
	 xml:space="preserve">
<g>
	<path fill="#999999" d="M44.665,0C19.997,0,0,19.997,0,44.665c0,23.024,17.422,41.979,39.802,44.402
		c3.296-2.412,6.038-5.536,7.999-9.146c0,0,1.441-2.648,1.441-7.183c0-5.11-3.604-9.379-8.408-10.402
		c-2.809-0.612-5.763-0.793-8.778-0.476l-13.832,1.454c-0.365,0.038-0.736,0.057-1.111,0.057c-2.739,0-5.236-1.034-7.121-2.735
		c-2.515-2.267-4.35-5.274-5.162-8.678l17.703-8.073c1.017-0.629,1.764-1.68,1.966-2.954l0.521-3.288
		c0.231-1.469,0.973-2.865,2.202-3.896l7.907-6.635c-3.64-3.447-5.729-8.463-5.258-13.845l0.622-7.115
		c1.035,4.555,3.195,8.683,6.172,12.075c0.318-4.069,2.068-7.736,4.746-10.497c0.57,3.433,2.783,6.311,5.805,7.797
		c2.778,1.265,4.916,3.69,5.795,6.656c9.731,0.813,18.575,4.746,25.53,10.795l-7.324,1.352c7.508,1.318,13.973,5.664,18.088,11.733
		l0.003,0.001c0.014-0.465,0.022-0.932,0.022-1.401C89.33,19.997,69.333,0,44.665,0z"/>
</g>
</svg>
